<svg xmlns="http://www.w3.org/2000/svg" viewBox="0 0 853.11 161"><title>nav-logo</title><path d="M34.28,100.12A229.58,229.58,0,0,1,53,80.38q5-4.63,10.22-8.95l2.48-2,1.38-1.1c-1.38,1.1,1.16-.88,1.43-1.05l3.2-2.3A226.49,226.49,0,0,1,94,50.86q5.94-3.29,12.08-6.23c2.19-1,4.39-2,6.58-3s-2.32.92.24-.11L116.46,40,96.85,14.3C85.18,30.84,74,47.64,61.89,63.8l-3.53,4.67c-1,1.29,2.54-3.22,0-.13l-1.71,2.19Q52.26,76,47.7,81.39c-7.46,8.77-15.2,17.3-23,25.77-6.12,6.69-7,18.12.09,24.67s17.28,6.38,24.7,0C68.36,115.59,86.32,98.3,105.1,82q7.85-6.84,15.9-13.47,3.9-3.2,7.87-6.34L131,60.54l-.44.35L134,58.17a161.24,161.24,0,0,1,28.31-17.72L138.39,16.5c-21.34,32.68-45,63.91-67.53,95.82-4.19,5.94-8.44,11.87-12.46,17.94-4.78,7.28-2,17.55,4.5,22.52a17.55,17.55,0,0,0,22.85-1.36c13.86-13.42,27.63-26.87,41.89-39.78A480.79,480.79,0,0,1,170.1,76.79L148.94,74l.75.94-4.39-7.7c1.8,4.39-.13-8.33,0-3.22q1.34-3,.35-.94l-1.18,2.39q-2,4-4.06,8-4.74,9.1-9.87,18-10,17.41-21.43,34c-5.2,7.54-1.67,19.74,6.27,23.88a17.9,17.9,0,0,0,23.88-6.27q13.49-19.85,25.22-41c3.75-6.78,7.37-13.62,10.77-20.57,2.39-4.87,4.74-9.85,4.83-15.35,0-6.71-2.19-11.54-6.4-16.8s-15.55-6.76-21.19-2.68c-33,23.71-62.35,51.76-91.35,80.1l27.44,21.16C110,115.19,133.72,84,156.2,52.14c4.12-5.94,8.51-11.87,12.46-17.94A17.55,17.55,0,0,0,165.92,13c-6.12-5.64-13.8-6.12-21.14-2.74A162.78,162.78,0,0,0,116,28.38c-11.87,8.77-23.29,18.27-34.48,28C62.31,73,44.08,90.58,24.81,107.14l24.7,24.7A639.89,639.89,0,0,0,91.41,82.29C103.74,65.87,115.14,48.76,127,32c4-5.64,2.61-14.32-1.36-19.39s-11.93-8.77-18.36-6.25A246,246,0,0,0,9.58,75.43c-5.9,7-7.35,18,0,24.7C16.16,106.09,28,107.56,34.28,100.12Z" style="fill:#87ceeb"/><rect width="853.11" height="161" style="fill:none"/><path d="M187,86.64q.62-5.57,1.45-9.43A54,54,0,0,1,187,61.64V50.49s-1.25-1.19-1-1.91V44.39a1.82,1.82,0,0,1-.2-1.52L187,42h8.1l.67.2s0,1.43.19,4.19v2.1a46.69,46.69,0,0,1,1.14,12.2q0,5.15-1,15.25c-.7,6.73-1.09,15.25-1.09,15.25v5.06l1.14,1.29s-.57,0-.57.92a2.49,2.49,0,0,0,0,.92,1.87,1.87,0,0,1,0,.64h14.15a6.15,6.15,0,0,0,3.61.73,33.71,33.71,0,0,0,6.55-.73,30.48,30.48,0,0,1,5.13-.55,12.8,12.8,0,0,0,0,2.76v1.1a10.21,10.21,0,0,1,0,1.29,2.55,2.55,0,0,1-1,1.84c-.66.64-1.14.92-1.42.92l-3.7-.55a15.69,15.69,0,0,1-8.92,2.2H197.55a37.27,37.27,0,0,1-9.72-1,4.29,4.29,0,0,1-3.83-4.06V94h-.52Zm1.85,10a5.15,5.15,0,0,1,0,1.14,32.3,32.3,0,0,0,.48,3.81A9.53,9.53,0,0,0,192.47,99a3.72,3.72,0,0,1-1.81-1.33,3,3,0,0,0,1.24,0s.67,0,.67-.48,0-.57-.76-1a4.1,4.1,0,0,1,.48-1.33,4.19,4.19,0,0,0,.48-1.81H189.9a3.34,3.34,0,0,0,2.67-1.52,7.62,7.62,0,0,0,.67-3.53,6.67,6.67,0,0,0-3.62.76,3,3,0,0,0-1.33,2.1,37.16,37.16,0,0,0,0,4.67A4.19,4.19,0,0,0,188.85,96.62Zm2-44.62a7.34,7.34,0,0,0-1.45,3.83,14,14,0,0,0,4.34,0q1.34,0,1.34-2.79,0-8.79-2.07-8.79L189,45q0,4,1.45,4h1s.52,0,.72.72q-.67,1.17-1.45,2.28Zm-.67,10a2.19,2.19,0,0,0-.48,1.72,7.91,7.91,0,0,0,0,1.72,6.38,6.38,0,0,0,3.81-3.53,12.77,12.77,0,0,0,1.33-6A4.29,4.29,0,0,0,192,57.14l-1.72,1.43a1.33,1.33,0,0,0,1,1.24,1,1,0,0,1,1,1h0a3.43,3.43,0,0,0-2.1,1.14ZM191,83l-.67,1a8.39,8.39,0,0,0-.86,1.52,4,4,0,0,0,0,1.62q3,0,3.81-1.81a13.05,13.05,0,0,0,.76-5.24V75.57l-1.52,1a6.19,6.19,0,0,0-1.72,1.72,3.62,3.62,0,0,0-.57,2s0,.48.76.67.76,0,.76.57a2.86,2.86,0,0,1-.86,1.43Zm-1.24-26h1.52a1,1,0,0,0,.48-.76h0A2.29,2.29,0,0,0,189.71,57Zm2,12.05q2.19,0,2.86-1.14a9,9,0,0,0,.57-3.91h-1l-4.48,4.86A7.05,7.05,0,0,0,191.71,69.05Zm-.18,1.83c.57,0,.86,0,.86-.76h0l-2.38.57v.48Zm2.38,30.78a2,2,0,0,0,0-.76,1.33,1.33,0,0,0,0-.57L190.76,103q2.76-.1,2.76-1.24Zm-2.48,3.44a6.29,6.29,0,0,0,2.67,0,4.48,4.48,0,0,0,1.62-2.1h-.57a11.53,11.53,0,0,0-3,0,2.86,2.86,0,0,0-2,1.52.86.86,0,0,0,1,.67Zm-.18-29.33.57-.76H190v1.52a1.52,1.52,0,0,0,1.33-.67Zm1-4.29L190.86,73H194V70.33a8.26,8.26,0,0,0-1.62,1.24Zm4.9,34.14c1,0,1.52,0,1.81.76a2.86,2.86,0,0,0,2-1.24l1.14-1.14h-.48a4.76,4.76,0,0,0-2.67.67V104c-3,0-4.57.67-4.57,1.91Zm5.38,0a4.48,4.48,0,0,0,3.91-1.52,1.81,1.81,0,0,0,.67.86h.76a2.29,2.29,0,0,0,1.72-1,3.14,3.14,0,0,0,.86-1.91q-7.81,1-7.81,3.72Zm8.1.33h2.67a25.72,25.72,0,0,0,6.1-.63c2.67-.51,4-1.14,4-2.37H210.77L209,105.28Z"/><path d="M267.65,100l2.1.67a12.2,12.2,0,0,1,3.14,1.24,2.19,2.19,0,0,1,1,2,6,6,0,0,1-2.57,5.81L267,108.52a15,15,0,0,1-4.57-2.67l-1.91-1.24a4.57,4.57,0,0,0-2.29,1,5.34,5.34,0,0,1-1.91,1,38.11,38.11,0,0,1-4.38,1.72,13.34,13.34,0,0,1-4,.57,21.44,21.44,0,0,1-8-1.62,16.77,16.77,0,0,1-6.77-5A12.29,12.29,0,0,1,230.49,94a19.06,19.06,0,0,1,.76-4.19,28,28,0,0,1,1.33-4.19,11.24,11.24,0,0,1,5.53-4,57.17,57.17,0,0,1,9.53-2.29,46.5,46.5,0,0,0,6.67-1.72q2-.76,2-2.29a7.15,7.15,0,0,0-2-5.15,7.24,7.24,0,0,0-5.53-2.1,9.53,9.53,0,0,0-2.76,0l-3.43,1.33a12.29,12.29,0,0,1-4.48,1.43q-2.67,0-2.67-5.34a4.67,4.67,0,0,1,3-4.76A61.73,61.73,0,0,1,246,59h4.57a7.24,7.24,0,0,0,4.48,1h2.29c1.72.11,2.57.75,2.57,2a3.72,3.72,0,0,1,1.81,0,1.52,1.52,0,0,1,.57,1.43q2.86,0,4.1,4.67a34.68,34.68,0,0,1,1.24,8.67,53.17,53.17,0,0,1-.76,7.81,52.31,52.31,0,0,0-.86,7.53,11.34,11.34,0,0,0,0,1.81,8.46,8.46,0,0,1,0,1.81v1l.6,1.14a1.21,1.21,0,1,0,1,2.19Zm-34.41-5.61a.5.5,0,0,0-.48.57h.76a.47.47,0,0,0,.48-.48v-.1A1.43,1.43,0,0,0,233.24,94.43ZM236,98.89a5.24,5.24,0,0,0,.48-1.81,5.05,5.05,0,0,0-2,0,2.1,2.1,0,0,0-1.24,1.24,1.72,1.72,0,0,0,.67.86l.86.57s1,.38,1.24-.48Zm-2-9.18A5.53,5.53,0,0,0,234,91a2.86,2.86,0,0,0,1.43,0l1.24-1h-1.91s-.67-.48-.76.1ZM237.92,91h-2.57a5.41,5.41,0,0,1-1.43,1h3.72c.16.1.29-.07.38-.25Zm-3.24,5.61c1.43,0,2.1-.48,2.1-1.52A2.38,2.38,0,0,0,234.68,96.61ZM239.34,89a2.18,2.18,0,0,0,.55-1h-2.64a3.36,3.36,0,0,1,1.45-1.09l2.36-.91,3-1.18a4.64,4.64,0,0,0,1.82-1.55h0a13.18,13.18,0,0,0-3,0,1.55,1.55,0,0,0-1.27,1.45l-2.09.73a7.36,7.36,0,0,0-2.09,1.09,3.64,3.64,0,0,0-1.18,1.73,3.45,3.45,0,0,0,1.18.73l1.27.45s.09,0,.45-.45Zm-1.23,10a1.43,1.43,0,0,0-1.52,1.33s0,.07,0,.1Q238,100.24,238,99ZM251,65.45a8.1,8.1,0,0,0,2.76,0c0-1.52-.38-2.29-1.14-2.45h-4.48c-1.71.05-3.43.05-5.15.16a28.59,28.59,0,0,0-4.86,1.24,4.57,4.57,0,0,0,0,1.24,3,3,0,0,0,0,1,14.29,14.29,0,0,0,3.62-.76,6.1,6.1,0,0,0,3.14-1.81l1,.89h.57a1,1,0,0,1,1-.12A9.53,9.53,0,0,1,251,65.45Zm-.57,35.66a19.91,19.91,0,0,0,5.15-2.19,3.81,3.81,0,0,0,2.19-3h0a22,22,0,0,0-1-7.34A4.29,4.29,0,0,0,252.12,85a4.19,4.19,0,0,0-1.52,0h-1.43a5.62,5.62,0,0,0-2.86,1.24l-2.1,2.57a3.43,3.43,0,0,0-1,1.24l-.86,1.72A11.34,11.34,0,0,1,241.16,94a1.72,1.72,0,0,1-1.43.76,7.24,7.24,0,0,0,1.62,5,6,6,0,0,0,4.76,1.81,18.29,18.29,0,0,0,4.19-.76Zm-8.77,4.17a4,4,0,0,0,1.62.57,2.29,2.29,0,0,0-.76-1.33c-.67-1-1-1-1.33-1a1.24,1.24,0,0,0-1.14.76Zm5.81,1a3.53,3.53,0,0,0,0-1.24h-.38a2.19,2.19,0,0,0-1.91,1.24l1.52.76s.48-.76.67-1.14Zm3.14-24.59-2.86,1.43,3.72-.48Zm3.4,21.92V102a6.38,6.38,0,0,0-3.34,1,3.14,3.14,0,0,0-1.72,2.67l4.48-1A2.72,2.72,0,0,1,254,103.56Zm0-22.3a3.79,3.79,0,0,0-.64.73h5l-1.43-1h-1.33a3.12,3.12,0,0,1-1.55.36Zm4-14.65c1,0,1.52-.67,1.52-1.14s-1-1-2.76-1a2.19,2.19,0,0,0-1.62.76,2.48,2.48,0,0,0-.67,1.81h1a9.53,9.53,0,0,0,2.48-.29ZM256.79,103l.76-.39a2,2,0,0,0,.45-2.1v-1l-.45.57-.57.67c0,.16,0,.32,0,.2h-2v2Zm4.48-25.26-2.67-.57-1,1.14Zm-3-7.91a1,1,0,0,0,0,.67,1.24,1.24,0,0,0,1,0,3.53,3.53,0,0,0,2,0,1.62,1.62,0,0,0,.57-1.43,3.24,3.24,0,0,0-.57-1.62,1.52,1.52,0,0,0-1.24-1ZM259,81h1.81l1.72.57A3.43,3.43,0,0,1,261,83a2.19,2.19,0,0,0-.76.67,3.43,3.43,0,0,0,0,1.62,9.53,9.53,0,0,0,.48,3,14.2,14.2,0,0,1,0,3,11.72,11.72,0,0,1,0,2.38q2.19-.48,3.24-4.48a33.73,33.73,0,0,0,1-8.39,14.58,14.58,0,0,0,0-3.62,8.1,8.1,0,0,0-3,1l-3.34,1.72A1.24,1.24,0,0,0,259,81.1Zm2.84-9.45a3.91,3.91,0,0,0-1.81,1,2.1,2.1,0,0,0-.67,1.52q1.91,0,3.81-3ZM264,73.83a.5.5,0,0,0-.57-.48,3.81,3.81,0,0,0-1.81.76,6.29,6.29,0,0,0-1.72,1.43l3.72.57a1.71,1.71,0,0,1,0-.67,1.81,1.81,0,0,0,0-.67,1.62,1.62,0,0,0,.38-.48ZM260,99h1.08l1.24-1.06c.51-.44.76-.76.68-1h0a2.89,2.89,0,0,0-1.35,0c-.46.21-.85.54-1.65,1Zm1.84-4.49a2.19,2.19,0,0,0-.76,1.62,1.91,1.91,0,0,0,2.19-2.1,2.19,2.19,0,0,0-1.33.57Zm.67,6.49h0c1.14,0,1.72-.86,1.72-2.67a3.33,3.33,0,0,0-1.52.48,1.43,1.43,0,0,0-1,1.24,1,1,0,0,0,.86,1Zm2.38,2h-1.62a1.43,1.43,0,0,0,.67,1.33,1.52,1.52,0,0,0,1-1.33Zm3,.85c0-.57-.67-.76-1-.76a1,1,0,0,0-.76.48,2,2,0,0,0,0,1c1-.1,1.62-.29,1.81-1Zm3,3.15a6.38,6.38,0,0,0,0-1.52.76.76,0,0,0-.86-.57,5,5,0,0,0-1.72,0,2.1,2.1,0,0,0-1.14.76Q267,107,270.89,107Z"/><path d="M356.36,98.61a2.76,2.76,0,0,1,.48,1.91,23.54,23.54,0,0,1-.57,5.34c-.38,1.59-.83,2.38-1.33,2.15h-1.81l-9.53,1.66a42,42,0,0,1-7.72.34h-2.1a2.44,2.44,0,0,1-1.52,1.09,7.53,7.53,0,0,1-2.19,0,24.11,24.11,0,0,1-13.15-5.15,34.21,34.21,0,0,1-9.53-11.53,29.92,29.92,0,0,1-3.62-14,42.5,42.5,0,0,1,4.48-19.06,36.49,36.49,0,0,1,12.2-14.2,32.4,32.4,0,0,1,19.06-5.43,77.28,77.28,0,0,1,8.67,0,13.15,13.15,0,0,1,6.29,2.48,7.53,7.53,0,0,1,2.86,6.57,4,4,0,0,1,0,1.62c0,.57-.67,1-1.14,1a9.53,9.53,0,0,1-2.67,0l-3-1-4.29-1.33a13,13,0,0,0-3.14,0,28.59,28.59,0,0,0-6.77.76,60.13,60.13,0,0,0-7.34,2.29,16.68,16.68,0,0,0-10.39,10.2A44.85,44.85,0,0,0,316,81.65v2.57c.47,0,.95,1.52,1.2,4.57a9.53,9.53,0,0,0,0,2.19,15.53,15.53,0,0,0,9.53,9,51.36,51.36,0,0,0,16.2,2.29,11.91,11.91,0,0,0,3.62-.57l4.57-1.81A11.05,11.05,0,0,1,355,98.42,1.72,1.72,0,0,1,356.36,98.61Zm-48-16.46a3.43,3.43,0,0,0,1.91-1,16.77,16.77,0,0,0,2-2.1H307v.57Q307,82.14,308.33,82.14Zm-.1-9.17c-.86.48-1.24,1.62-1.24,3.34v1.14A36,36,0,0,0,310.43,75,3.43,3.43,0,0,0,312,72.4,8.29,8.29,0,0,0,308.24,73ZM308,87.17V88h1l3-3V84.5c-3.12,0-4.8.44-4.8,1.33a2.76,2.76,0,0,0,.8,1.43ZM312,81h-.57a3.53,3.53,0,0,0-2.1,1A3.43,3.43,0,0,0,308,84.24a10.39,10.39,0,0,0,3.34,0q1.14,0,1.14-2.1c0-2.1-.19-1-.48-1Zm-3-12,4-2.48V66h-3.32a3.43,3.43,0,0,0-.68,2.19Zm1.72.31a12.1,12.1,0,0,0-2.1,2.19,11.62,11.62,0,0,0,3.43,0c.67,0,1-1,1-2.19h0a3.62,3.62,0,0,0-2.19-.19Zm1.91,7.22a3,3,0,0,0,0-1A10.29,10.29,0,0,0,308.72,78h1.72q2.29-.1,2.29-1.72Zm40.37,26a44.2,44.2,0,0,1-12.6,2.91l-5.87-.73q-2,0-10.1-3.12l-4.33-1.77L316.94,99l1.25-1.25s0-.73-.67-.73h-1.43a6.45,6.45,0,0,0,0-2.45q0-.73-2-.73a2.82,2.82,0,0,0,1.27-1.73c-1.09,0-1.64-.73-1.64-2.09h-3.09l1.45-.73a1,1,0,0,0,.91-.73,4.64,4.64,0,0,0,0-1.09V84.74a5.67,5.67,0,0,0-2.4,1.45,3.39,3.39,0,0,0-1.35,2.29l.67,2.39a19.35,19.35,0,0,0,.58,2.29,3.33,3.33,0,0,0,1.83-.83,1.57,1.57,0,0,0,0,.62,1.9,1.9,0,0,0,0,.83,7.9,7.9,0,0,0,3.17,6.86,24.53,24.53,0,0,0,5.58,2.91l4.23,1.45h1.83q0,1.35,4,2a44.58,44.58,0,0,0,6.73.62,57.67,57.67,0,0,0,8.75-.73,16.53,16.53,0,0,0,6.35-2ZM312.44,60.59a2.11,2.11,0,0,0-1.24,1.72h0l1.24-.57,1.62-1a1.52,1.52,0,0,0,.67-1.14A4.38,4.38,0,0,0,312.44,60.59Zm2.1,3.41a2.29,2.29,0,0,0,.67-1.72h0a3.72,3.72,0,0,0-1.72,1l-1.43,1.43h0a2.29,2.29,0,0,0,2.38-.67Zm-1.33-4.46a13.44,13.44,0,0,1,3.43-1.62l1.81-1a2.57,2.57,0,0,0,.76-1.52,17.82,17.82,0,0,0,0-3.53l-6.29,6.19ZM322,50a2.86,2.86,0,0,0-.76,2.1,2.67,2.67,0,0,0,1.91-1,2.86,2.86,0,0,0,1-2,2.76,2.76,0,0,0-2.19.86Zm3.62-.56L323.87,52a7.78,7.78,0,0,0,1.81-2.19ZM329.3,46q-1.81,1-1.81,1.33l.57,1.33A46.59,46.59,0,0,0,333,45h-1.14A6.38,6.38,0,0,0,329.3,46Zm4.19,1q-1.43,0-4.1,3.14A6.1,6.1,0,0,0,333.78,47Zm.76-2c0,.57,0,1.14,1.43,1.91L337.5,45Zm3.84,1a1.3,1.3,0,0,0-1.1.5l-.9,1.5h.7q1.2,0,2-2Zm1.9-.33a1.33,1.33,0,0,0,1.24-.67H340Zm3,1.57a3.14,3.14,0,0,0,.48-1.72L341.09,48h.57A1.52,1.52,0,0,0,343,46.76Zm2.6-2.18-1.33,1.33a3.33,3.33,0,0,0,1.62,0,1.24,1.24,0,0,0,.76-1.14Zm2.19.57a2.1,2.1,0,0,0-1.62.76,3.81,3.81,0,0,0-.76,2,2.19,2.19,0,0,0,1.81-1,4.76,4.76,0,0,0,1-2.1Zm1.14.37c-.08,0-.08.46,0,1h1.24a3.26,3.26,0,0,0-.57,2,3,3,0,0,0,1.81-.57,1.91,1.91,0,0,0,0-3,2.38,2.38,0,0,0-1.52-.57A1.27,1.27,0,0,0,349,46Zm3.74,2.39a2.38,2.38,0,0,0,0,1.24c0,.67,0,1,1.33,1V47.44a3,3,0,0,0-1.24,1Z"/><path d="M403.1,101.32h0a22.66,22.66,0,0,0,.58,2.66,15.18,15.18,0,0,1,.58,3.6c0,.76-.58,1.23-1.84,1.42a28.43,28.43,0,0,1-4,0h-3l-.86-.48s-.57-.48-.57-.67V80.13a19,19,0,0,0-1.53-6.48h0a13,13,0,0,1-3.34-1.72,12.89,12.89,0,0,1-3-2.1l-3.34.67a22.94,22.94,0,0,0-6.3,2A5.82,5.82,0,0,0,373,76.7v2.95a9.52,9.52,0,0,1,0,2.86v3.81c-.06,5.4-.25,9.5,1,12.29v3.72l-1.82.57,1,1.52a4.29,4.29,0,0,1,.86,2.38,2.76,2.76,0,0,1,0,1.24,4.16,4.16,0,0,1-1,1h-8.77s-.54-1-1-1.05a3.16,3.16,0,0,1-1.32-.57V99.08c.46-4.51.81-11.31,1.51-20.39l.49-8.1V39h7.65l1.35.57v5.22a89,89,0,0,0,.58,17.07l.58,1.33A71.76,71.76,0,0,1,382,61.1a34.11,34.11,0,0,1,7.06-1,13.82,13.82,0,0,1,8.52,2.85,20.29,20.29,0,0,1,6.1,7.3,19.51,19.51,0,0,1,2.23,8.73,43.6,43.6,0,0,1,0,5.6l-.48,4.08a71.36,71.36,0,0,0-1.06,10.05,20.26,20.26,0,0,0,0,2.37ZM368.76,105a3,3,0,0,0,.45-1.73,8.28,8.28,0,0,0,0-1.18,2,2,0,0,0-.55-1.09h-2l2.63-2.63c0-1.37-.59-2-1.07-2h0L368.9,95a4.29,4.29,0,0,0-3.9,2h1.27L365,98.85l.59.59a1,1,0,0,0-.59,0,2.15,2.15,0,0,0,0,.78V101a6.88,6.88,0,0,1,0,1.24h0a.76.76,0,0,0,0,.67l.67,1.1h1.24a12,12,0,0,0,1.91,1Zm-.28-23a33.2,33.2,0,0,1,.74-8h-1.1A6.71,6.71,0,0,0,366,75.29a3.31,3.31,0,0,0,0,2h0l1.2.64-1.2,1.1v7.69l1.16.63a2.69,2.69,0,0,0-1.34.81,2,2,0,0,0-.54,1.34,5.1,5.1,0,0,1,1.79,0,2.78,2.78,0,0,1,1.34.9A4,4,0,0,0,369,88h-1.25A3.94,3.94,0,0,1,369,86.21c-.36-.45-.36-2.33-.36-4.21Zm-.88,12h-1l.57-1.21a3,3,0,0,0-1.33,0,.59.59,0,0,0-.57.67c-.16.23-.16.53,0,1.54h2.76a3.27,3.27,0,0,1,1-1.35h0Zm-.67-52.37a1,1,0,0,0-1,.67,22.68,22.68,0,0,0,1,5.15,23.63,23.63,0,0,1,.76,4.19,1.56,1.56,0,0,0,.2.67V63.07l.37.57s-.48,0-.67,1a20.23,20.23,0,0,0,0,2.31h1.62s-1.52,1.21-1.52,1.78a4.57,4.57,0,0,0,1.81-.57l1.52-.86a8.77,8.77,0,0,0,0-2.19A1.41,1.41,0,0,0,370,63.64v-.76a1.27,1.27,0,0,0,.37-1.14,24.59,24.59,0,0,0,0-3.72,19.06,19.06,0,0,1-.48-4.29h0a4.86,4.86,0,0,0,.57-1.72,12.34,12.34,0,0,1,.53-2.19v-2h0a1.32,1.32,0,0,1-.53-1.43,6.58,6.58,0,0,0,0-2.29,7.81,7.81,0,0,0,0-1.91.5.5,0,0,0-.57-.48A4.1,4.1,0,0,0,366.94,41.63Zm9.53,26.71q8.48-3,9.53-4.57l-.57-.57L377.61,65h-1.33a7.43,7.43,0,0,0-1.52,1.52,8.38,8.38,0,0,1-1.24,1.33,1.91,1.91,0,0,1-1.24,0,.76.76,0,0,1-.67,0h0a13.53,13.53,0,0,0-3.24,1.43,2.57,2.57,0,0,0-1.14,2.29,1,1,0,0,0,1.24,1.24,16,16,0,0,0,3.53-1,2.67,2.67,0,0,0,1.24-1.14,1.72,1.72,0,0,1,.86-1ZM383,67v-.79l-2.15.79h1c.45.62.92.55,1.33,0Zm10-2.43a4.67,4.67,0,0,0-2.57-.57h-1.91l-3.14,3.81.57.48a30.78,30.78,0,0,0,6.48-3.81ZM390.57,68l1.72-1.79-1.43.48c-1,.32-2,.77-2.86.31h1.33c0,1,0,1.5.67,1Zm2.38.88a5.05,5.05,0,0,0,3.62-2l-1.81-1.43-3,3.24ZM396.86,74h1l-1.14,1,1.43.48-1.43,1.33a7,7,0,0,0,2.76-.86,2.57,2.57,0,0,0,1.81-2.29A1.8,1.8,0,0,0,399.81,72h-.48l.57-.93a3.33,3.33,0,0,0-.48-1.81,1.52,1.52,0,0,0-1.33-.76,3.43,3.43,0,0,0-2.1.76,6.57,6.57,0,0,0-1.72,1.81l1.24.48a1.43,1.43,0,0,0,.47,1.14v.76h0Zm4.1,6.12a5,5,0,0,0,1.72-4.1,6.48,6.48,0,0,0-4.29,1.52,4.86,4.86,0,0,0-1.81,3.91A6.67,6.67,0,0,0,400.39,80ZM399.8,92.2a6.5,6.5,0,0,1,.9-2.5l.7-1.6a8.4,8.4,0,0,0,.6-3.3,1.8,1.8,0,0,0,0-.7h0l-3.9,2.5h0c0,.7,0,1.1.7,1.1l-2.6,1.1a2.3,2.3,0,0,0-.6,1.2l1.3-.6h0a1,1,0,0,0,0,.6h.76a1.07,1.07,0,0,0,0,.76h0L397,93.63V107h.75a3.77,3.77,0,0,0,1.69,0,1.25,1.25,0,0,0,.56-1.24V101.5a46.5,46.5,0,0,1,0-5.5h-.5a4.6,4.6,0,0,0,1.6-3.2Zm.3-7.72a5.15,5.15,0,0,0,1.81-3.62,6,6,0,0,0-2.86,1q-1.72,1-1.72,2.1h1.43a1.91,1.91,0,0,1-.86.76l-1.24.1a1.14,1.14,0,0,0,0,1,5.05,5.05,0,0,0,3.24-1Z"/><path d="M463.86,73.17A33.73,33.73,0,0,1,467,88.6v3.34a1.62,1.62,0,0,1-.76.76l-.86.57a1.52,1.52,0,0,0,0,1.14,2.86,2.86,0,0,0,0,.76.86.86,0,0,0,.48.57,1,1,0,0,0-1,.76l-1,2.67a7.24,7.24,0,0,1-1.62,3.43,37,37,0,0,1-11.82,6,49.74,49.74,0,0,1-13.91,1.81l-7.91-5a3.81,3.81,0,0,1-2.86-1.14,13,13,0,0,1-2.19-3.34L422,98.7a6.77,6.77,0,0,0-1.72-1.81,28.59,28.59,0,0,1-1.91-7.15,61.65,61.65,0,0,1-.48-8.39l3.81-10.77,2.48-2.67,4.19-4.19a23,23,0,0,1,6.86-3.81A20.77,20.77,0,0,1,443,58.3a15.82,15.82,0,0,1,5.43,1A24.49,24.49,0,0,1,453.66,62,30.49,30.49,0,0,1,463.86,73.17Zm-42.51,6.64-.76.86a3.62,3.62,0,0,0-.76,2.57,5,5,0,0,0,2.57-.67,23.15,23.15,0,0,0,2.76-1.91,1.9,1.9,0,0,0-1.52-.67h-2.19Zm1.91,8.76q2-1.52,2-2.57h-4.57q-1,0-1,3.14a8.77,8.77,0,0,0,3.53-1ZM426,82.86V81l-1.14.29-1.14.57Q420.95,83,420.57,84h4.29a1.87,1.87,0,0,0,1-1.62Zm-4,12.86,1-1.62a6.38,6.38,0,0,0,1.43-1.24,2.1,2.1,0,0,0,.76-.86h-2.67c-.67,0-1,0-1,.67Zm0-20.64a8.58,8.58,0,0,0,0,2.57,9,9,0,0,0,3.24-1.24,4.29,4.29,0,0,0,2.29-1.91,6.38,6.38,0,0,0-3.91-1.24c-.76,0-1.24.48-1.43,1.72Zm2.57,14.2a7.81,7.81,0,0,0-2.1,1.33l3,.67s.48,0,.67-.86a6.67,6.67,0,0,0,0-1.91,6.38,6.38,0,0,0-1.43.29Zm-1.52,8.19a13.15,13.15,0,0,0,4.38-1.81,3.62,3.62,0,0,0,0-1.43.59.59,0,0,0-.67-.57h0l-3.14,3.14Zm2.19-27a3,3,0,0,0-1,1.33Q424.3,73,426,73h2.57l.57-2.57-2.86-.57A6.11,6.11,0,0,0,425.25,70.43ZM426.4,101a2.07,2.07,0,0,0,2.29-.39,2.38,2.38,0,0,0,1.24-2c-1,0-1.72,0-1.92.76v-3l-4,1.81v.67c1.25,1.81,2.11,2.67,2.59,2.2ZM427,77.83a3.24,3.24,0,0,0,1-1.52h0a2.76,2.76,0,0,0-1.52.67c-.57,0-1,1-1,1.33a3,3,0,0,0,1.72-.38Zm4,25.73a3,3,0,0,0,1-1v2a5.53,5.53,0,0,0,2.29-.48,1.62,1.62,0,0,0,.76-1.52s0-1-1.33-1.33a5.72,5.72,0,0,0-2.1-.57h0l-3.81,1.24a1.91,1.91,0,0,0,1.91,1.91h0A2.67,2.67,0,0,0,431,103.56Zm-1.82-35.61c-.53,0-.79.7-.79,1.05h1.15q3,0,3-.87L430.8,67h0a5.3,5.3,0,0,1,1.65,0h1.8a2.38,2.38,0,0,0,1.41-.44,8.82,8.82,0,0,0,1.94-.88A5.38,5.38,0,0,1,439.89,64H437.2l-.53-.53a4,4,0,0,0-1.75,0,12.19,12.19,0,0,0-2.11,1.32,12,12,0,0,1-3.07,1.67,1,1,0,0,1,0,.53A1.52,1.52,0,0,1,429.13,67.95ZM438,69.19a23.27,23.27,0,0,0-5.15,3.91,3.34,3.34,0,0,0-.76,2.1,5.72,5.72,0,0,1,0,1.43,1.72,1.72,0,0,1-.67.86,27.28,27.28,0,0,0-1.14,4,40.92,40.92,0,0,0-.76,4.1,9.54,9.54,0,0,0,0,1.62A13.64,13.64,0,0,0,438.29,100h4.77a19.08,19.08,0,0,0,9.54-1.91,10,10,0,0,0,4.58-5.63,31.38,31.38,0,0,0,1.24-9.54,20.41,20.41,0,0,0-.86-4.77,27,27,0,0,0-1.72-4.77,8.3,8.3,0,0,1-5-4.39,17.26,17.26,0,0,1-3.15,0h-3.34a12.4,12.4,0,0,0-6.39.29Zm-1.6,34.37a2.86,2.86,0,0,0-2,.76,2.29,2.29,0,0,0-.86,1.81Q436.4,106.13,436.4,103.56Zm1.81,1.39a2.76,2.76,0,0,0,1.91-1h-1.33c-.67,0-1,0-1.24.67Zm19.36-4h-2.11a7.62,7.62,0,0,0-2.38,0,6.57,6.57,0,0,0-2,1l-1.33,1h-8.05l-2,2.17a9.52,9.52,0,0,0,2.69.83h2.36a15,15,0,0,0,4.9-1.1q2.53-.58,5-1.4a8.8,8.8,0,0,0,2.5-1.4ZM444.31,63.33A9.53,9.53,0,0,0,443,64.86l2.57.48,5,.67h1l1.24-.86a7.81,7.81,0,0,0-3-2.19A9.53,9.53,0,0,0,446,62S445.26,62.66,444.31,63.33ZM446.69,108h-1.52a.86.86,0,0,0,0,.67Zm5.81-2a1,1,0,0,0,0-.76l-1.91.76h1.91Zm-1.27-39a1.11,1.11,0,0,0,1,1A5,5,0,0,0,454,68V67ZM455,69a1.91,1.91,0,0,0,0,1,1.81,1.81,0,0,0,1.33,1.91l1-.48a2.19,2.19,0,0,0,1-.76L457,69.38l-1-.76a.76.76,0,0,0-.76.38Zm3.72,31a2.19,2.19,0,0,0,1.81-2.19,2.5,2.5,0,0,0-1.72-.57,3.72,3.72,0,0,0-2.48,1,3,3,0,0,0-1.14,2.29A11.91,11.91,0,0,0,459,100ZM457,72v1c1.14,0,1.81,0,1.91-1Zm1.8,31.56h0a1.14,1.14,0,0,0-1.14.57ZM461,74.21a1,1,0,0,0-1-.67c-1,0-1.43,0-1.43,1s1,1.33,2.76,1.33a3.72,3.72,0,0,0-.29-1.91Zm1,21.25a3.42,3.42,0,0,0,.61-2.46h-2.86a4.32,4.32,0,0,1,0,1.89A3,3,0,0,1,458.61,96h1.62a3.93,3.93,0,0,0,1.78-.82Zm-2-17.82c.53-.31.53-.65.42-.64H459v.83c.52.15,1.08,0,1-.48Zm3.37,11.82a1.14,1.14,0,0,0,0-1.24,7.24,7.24,0,0,0-2.19,0,5,5,0,0,1,0,2,5,5,0,0,0,0,2.1Q463.37,92.13,463.37,89.46Zm-1-10.46c0-.47-.35-.78-1-.78-1,0-1.62,0-1.62,1.24a2.48,2.48,0,0,0,0,1.14,2.48,2.48,0,0,1,0,1h0a1,1,0,0,1,0,.57h0l.76-.57.76-.55h.76a4.67,4.67,0,0,0,.76-2Zm0,4-2.57,2.67a2.29,2.29,0,0,0,1.43,1,7.05,7.05,0,0,0,2,0c.19-2.38.19-3.72-.57-3.72Z"/><path d="M515.07,101.92l1.87,6.51a3.94,3.94,0,0,1-.89,1.58,2.46,2.46,0,0,1-1.58,0H497.29l1.14-1H498c-1.24-.1-1.81-.1-1.91,1H488c0-.43-2.29-1.1-6.19-1H477v-2h-.43s-.61,0-.61-1a6,6,0,0,1,.87-2.68,44.34,44.34,0,0,1,3-4.22,23.54,23.54,0,0,0,3.3-5.37q2.78-6,7.39-14.37l1.74-2.68a20.23,20.23,0,0,0,2.17-3.64,9.7,9.7,0,0,0,.7-3.93A41.23,41.23,0,0,0,487.78,68H475V66.21s0-3.05.09-4.57c0-1.14.67-1.72,1.43-1.72a45.17,45.17,0,0,1,6.19.57,36.49,36.49,0,0,0,6.1.51h11.91c2.11.12,4.21.31,6.29.64a24.91,24.91,0,0,0,5.91.36h1.52c.21.63.37,1.08.48,1.54,0,.67,0,1,.67,1.24A9.53,9.53,0,0,1,513.87,69q-1.33,1.91-6.38,7.72a18,18,0,0,0-1.91,2.67q-.76,1.33-1.72,3.34a28.58,28.58,0,0,1-2,3.91l-4.29,6.29c-2.92,4.19-5.58,8.67-5.58,8.67v.85l2.56.59h16.86l1.68-.59,1.58-.69ZM480.76,65.76A2,2,0,0,0,482.48,64c0-.57-.57-1-1.62-1H478v3.24A8.39,8.39,0,0,0,480.76,65.76Zm2,39.81c.67,0,1,0,1.14-.57h-1.43l-1.43-.48V106Zm.19-5.73a2.86,2.86,0,0,0-.48,1.72l3.72-.57a2,2,0,0,1-1.24-.67,2.29,2.29,0,0,1-.57-1.24,1.91,1.91,0,0,0-1.14,1Zm11-33.85,3.43.11a7.72,7.72,0,0,0,3-.67q1.91-.86,1.91-1l-.76-.4H485.86a1.54,1.54,0,0,0-1.72.11c-.48.27-.77.78-.76,1.89h10.48Zm-6,31a3.33,3.33,0,0,0,2.48-2h-3.14c0,.37-.67.37-1.24,1.61l-1.14,1.91a6.44,6.44,0,0,0,3-1.51Zm-1.43,8a10.35,10.35,0,0,0,1-2h-1.81c0,1.42,0,2.18-1,2.47.65-.14,1.22-.52,1.62-.47Zm3.57-.57a7.34,7.34,0,0,0-3.24.57H490Zm-.24-15.62a1.62,1.62,0,0,0-.76,1.62V91l3-.76q1.81-1,1.81-1.24h-1.52a4.76,4.76,0,0,0-2.57.29ZM493,105.28c.67,0,1,0,1-.57a.86.86,0,0,0,0-.48h0a2,2,0,0,0-1.33.57,1.81,1.81,0,0,0-.67,1.33,4.57,4.57,0,0,0,1-.38Zm0-12.94a1.43,1.43,0,0,0,.57-1.14h0A11.15,11.15,0,0,0,491.19,93h.29a2.19,2.19,0,0,0,1.52-.19Zm.48-8.59c.76,0,1.14,0,1.33-.67l-.57-.57a1.43,1.43,0,0,0-1,2ZM503,106h4.71a17.64,17.64,0,0,0,4.73-1q0-1-2.91-1h-5.86s-3.81-.15-5.72,0h-1.81c-.79-.07-1.91,1-1.91,1H500l.67.56Zm-7.43-20.45a2.06,2.06,0,0,0,1.43.67,2,2,0,0,0,1.43,0A4.29,4.29,0,0,0,499,84.5h0a16.1,16.1,0,0,0-3.72,1.62Zm2.19-8.79a1.15,1.15,0,0,0-1.14,1.14h0L500.44,76h-.67a7.15,7.15,0,0,0-2.29,1.33Zm3.91,1.93a3,3,0,0,0-1.72.48,1.62,1.62,0,0,0-.76,1.43l1.81.57ZM501,70.76a1.33,1.33,0,0,0-.57,1.24H501Zm3.06-6.46a1.72,1.72,0,0,0-.57,1h0l1.81-1.91h0a1.62,1.62,0,0,0-1.43,1.43Zm3.14,3.13a39.64,39.64,0,0,0-2.48,3.34,5.24,5.24,0,0,0,3.72-1.72,43.55,43.55,0,0,0,3.81-4.57,1,1,0,0,0-1-.48h-1A25.25,25.25,0,0,0,507,68ZM511,108h-1A1.33,1.33,0,0,0,511,108Z"/><path d="M562.37,100l2.1.67a12.2,12.2,0,0,1,3.14,1.24,2.19,2.19,0,0,1,.57,1.62,6,6,0,0,1-2.57,5.81l-4.38-1.24a15,15,0,0,1-4.57-2.67l-1.91-1.24a4.57,4.57,0,0,0-2.29,1,5.34,5.34,0,0,1-1.91,1,38.11,38.11,0,0,1-4.38,1.72,13.34,13.34,0,0,1-4,.57,21.44,21.44,0,0,1-8-1.62,16.77,16.77,0,0,1-6.77-5,12.29,12.29,0,0,1-2.29-8,19.06,19.06,0,0,1,.76-4.19,28,28,0,0,1,1.33-4.19,11.24,11.24,0,0,1,5.53-4,57.17,57.17,0,0,1,9.53-2.29,46.5,46.5,0,0,0,6.86-1.52q2-.76,2-2.29a7.15,7.15,0,0,0-2-5.05,7.24,7.24,0,0,0-5.53-2.1,9.53,9.53,0,0,0-2.76,0l-3.43,1.33a12.29,12.29,0,0,1-4.48,1.43q-2.67,0-2.67-5.34a4.67,4.67,0,0,1,3-4.76A19.35,19.35,0,0,1,540.84,60h4.57a17.64,17.64,0,0,1,4.48,1h2.29c1.72-.6,2.57,0,2.57,1.3a3.72,3.72,0,0,1,1.81,0,1.52,1.52,0,0,1,.57,1.43q2.86,0,4.1,4.67a34.68,34.68,0,0,1,1.24,8.67,53.17,53.17,0,0,1-.76,7.81,52.32,52.32,0,0,0-.86,7.53,11.33,11.33,0,0,0,0,1.81c0,.6,0,1.21.15,1.81v1l.42,1.14a1.07,1.07,0,0,0,1,1.91Zm-34.13-5.61a.5.5,0,0,0-.48.57h.76a.47.47,0,0,0,.48-.48v-.1A1.43,1.43,0,0,0,528.24,94.43Zm2.4,4.46a5.24,5.24,0,0,0,.48-1.81,5.05,5.05,0,0,0-2,0,2.1,2.1,0,0,0-1.24,1.24,1.72,1.72,0,0,0,.67.86l.86.57s.67.38,1.33-.48Zm-2-9.18a5.53,5.53,0,0,0,0,1.24,2.86,2.86,0,0,0,1.43,0l1.24-1H529.4s-.57-.48-.67.1ZM532.55,91H530a5.41,5.41,0,0,1-1.43,1h3.72c.16.1.29-.07.38-.25Zm-3.43,5.32c1.43,0,2.1-.48,2.1-1.52a2.38,2.38,0,0,0-2,1.81ZM533.69,89a2.29,2.29,0,0,0,.57-1H531.5A3.53,3.53,0,0,1,533,86.86l2.48-1,4.1-1a4.86,4.86,0,0,0,1.91-1.62h0a13.82,13.82,0,0,0-3.14,0A1.62,1.62,0,0,0,537,84.86l-2.19.76a7.72,7.72,0,0,0-2.19,1.14,3.81,3.81,0,0,0-2.57,2,3.62,3.62,0,0,0,1.24.76l1.33.48a2.43,2.43,0,0,0,1.14-.67Zm-1.14,10.13a1.43,1.43,0,0,0-1.52,1.33s0,.07,0,.1q1.62.1,1.62-1.14ZM545.6,65.45a8.1,8.1,0,0,0,3,.48c0-1.52-.38-2.29-1.14-1.92h-4.48a15.36,15.36,0,0,0-5.15-.36,28.59,28.59,0,0,0-4.86,1.24,4.57,4.57,0,0,0,0,1.24,3,3,0,0,0,0,1,14.29,14.29,0,0,0,3.62-.76,6.1,6.1,0,0,0,3.14-1.81L541.5,66h.57c.31-.65.64-.65,1-.55A9.53,9.53,0,0,1,545.6,65.45ZM545,101.1a19.91,19.91,0,0,0,5.15-2.19,3.81,3.81,0,0,0,2.19-3h0a22,22,0,0,0-1-7.34A4.29,4.29,0,0,0,546.81,85a4.19,4.19,0,0,0-1.52,0h-1.43A5.62,5.62,0,0,0,541,86.24l-2.38,1.62a3.43,3.43,0,0,0-1,1.24l-.86,1.72A11.34,11.34,0,0,1,535.57,93a1.72,1.72,0,0,1-1.43.76,7.24,7.24,0,0,0,1.62,5,6,6,0,0,0,4.76,1.81,18.29,18.29,0,0,0,4.48.19Zm-8.74,4.17a4,4,0,0,0,1.62.57,2.29,2.29,0,0,0-.76-1.33c-.57-1-1-1-1.24-1a1.24,1.24,0,0,0-1.14.76Zm5.81,1a3.53,3.53,0,0,0,0-1.24h-.48a2.19,2.19,0,0,0-1.91,1.24l1.52.76a4.6,4.6,0,0,0,.76-1.14Zm3.14-24.59-2.86,1.43,3.72-.48ZM549,103.56V102a6.38,6.38,0,0,0-3.33,1,3.14,3.14,0,0,0-1.72,2.67l4.38-1.14A1,1,0,0,0,549,103.56Zm0-22.3a1.77,1.77,0,0,0-.83.73h5l-1.43-1h-1.33a2.91,2.91,0,0,1-1.37.36Zm3.84-14.65c1,0,1.52-.67,1.52-1.14s-1-1-2.76-1a2.19,2.19,0,0,0-1.62.76,2.48,2.48,0,0,0-.67,1.81h1a9.53,9.53,0,0,0,2.38-.29ZM551.51,103l.76-.39a3,3,0,0,0,.73-2.1v-1l-.73.57-.57.67c0,.16,0,.32,0,.2H550v2ZM556,77.74l-2.67-.57-1,1.14Zm-3-7.91a1,1,0,0,0,0,.67,1.24,1.24,0,0,0,1,0,3.53,3.53,0,0,0,2,0,1.62,1.62,0,0,0,.57-1.43,3.24,3.24,0,0,0-.57-1.62,1.52,1.52,0,0,0-1.24-1ZM554,81h1.81l1.72.57A3.43,3.43,0,0,1,556,83a2.19,2.19,0,0,0-.76.67,3.43,3.43,0,0,0,0,1.62,9.53,9.53,0,0,0,.48,3,14.2,14.2,0,0,1,0,3,11.72,11.72,0,0,1,0,2.38q2.19-.48,3.24-4.48a33.73,33.73,0,0,0,1-8.39,14.58,14.58,0,0,0,0-3.62,8.1,8.1,0,0,0-3,1l-3.33,1.72A1.24,1.24,0,0,0,554,81.1Zm2.56-9.45a3.91,3.91,0,0,0-1.81,1,2.1,2.1,0,0,0-.67,1.52q1.91,0,3.81-3Zm2.29,2.29a.5.5,0,0,0-.57-.48,3.81,3.81,0,0,0-1.81.76,6.29,6.29,0,0,0-1.72,1.43l3.72.57a1.71,1.71,0,0,1,0-.67,1.81,1.81,0,0,0,0-.67,1.62,1.62,0,0,0,.19-.48ZM555,99h.8L557,97.94c.51-.44.76-.76,1-1h0a4.17,4.17,0,0,0-1.63,0,7.42,7.42,0,0,0-1.37,1Zm2-4.49a2.19,2.19,0,0,0-.76,1.62,1.91,1.91,0,0,0,2.38-2.1,2.19,2.19,0,0,0-1.62.57Zm.23,6.49h0c1.14,0,1.72-.86,1.72-2.67a3.34,3.34,0,0,0-1.52.48,1.43,1.43,0,0,0-1,1.24,1,1,0,0,0,.86,1Zm2.38,2h-1.52a1.43,1.43,0,0,0,.67,1.33,1.52,1.52,0,0,0,1-1.33Zm3,.85c0-.57-.67-.76-1-.76a1,1,0,0,0-.76.48,2,2,0,0,0,0,1c.86-.1,1.62-.29,1.81-1Zm3,3a6.39,6.39,0,0,0,0-1.52.76.76,0,0,0-.86-.57,5,5,0,0,0-1.72,0,2.1,2.1,0,0,0-1.14.76Q561.7,106.9,565.52,106.9Z"/><path d="M651,98.61a2.76,2.76,0,0,1,.48,1.91,23.54,23.54,0,0,1-.57,5.34c-.38,1.59-.83,2.38-1.33,2.15h-1.81l-9.53,1.66a42,42,0,0,1-7.72.34h-2.38a2.44,2.44,0,0,1-1.52,1.09,7.53,7.53,0,0,1-2.19,0,24.11,24.11,0,0,1-13.15-5.15,34.21,34.21,0,0,1-9.53-11.53,29.92,29.92,0,0,1-3.62-14,42.5,42.5,0,0,1,4.48-19.06,36.49,36.49,0,0,1,12.48-14.29,32.4,32.4,0,0,1,18.39-5.34,77.28,77.28,0,0,1,8.67,0,13.15,13.15,0,0,1,6.29,2.48,7.53,7.53,0,0,1,2.86,6.57,4,4,0,0,1,0,1.62c0,.57-.67,1-1.14,1a9.53,9.53,0,0,1-2.67,0l-3-1L640.12,51A13,13,0,0,0,637,51a28.59,28.59,0,0,0-6.77.76A60.13,60.13,0,0,0,622.88,54a16.67,16.67,0,0,0-10.39,10.2A44,44,0,0,0,610,81.55v2.57c.43,0,.9,1.52,1.16,4.57a9.53,9.53,0,0,0,0,2.19,15.53,15.53,0,0,0,9.53,9,51.36,51.36,0,0,0,16.2,2.29,11.91,11.91,0,0,0,3.62-.57l4.57-1.81A11.05,11.05,0,0,1,649,98.32,1.72,1.72,0,0,1,651,98.61ZM602.52,82.14a3.43,3.43,0,0,0,1.91-1,16.77,16.77,0,0,0,1.81-2.1H601v.57Q601.29,82.14,602.52,82.14Zm.71-9.17c-.86.48-1.24,1.62-1.24,3.34v1.14A36,36,0,0,0,606.19,75a3.43,3.43,0,0,0,1.52-2.57A8.29,8.29,0,0,0,603.24,73ZM603,87.17V88h.63L607,85V84.5c-3.5,0-5.18.44-5.18,1.33a6.1,6.1,0,0,0,.67,1.43ZM606.77,81h-.57a3.53,3.53,0,0,0-2.1,1,3.43,3.43,0,0,0-1.33,2.19,10.39,10.39,0,0,0,3.33,0q1.14,0,1.14-2.1c0-2.1-.1-1-.38-1ZM603,69l4-2.48V66h-3.32a3.43,3.43,0,0,0-.68,2.19Zm2.35.31a12.1,12.1,0,0,0-2.1,2.19,11.62,11.62,0,0,0,3.43,0c.67,0,1-1,1-2.19h0a3.62,3.62,0,0,0-2.29-.19Zm1.91,7.22a3,3,0,0,0,0-1A10.29,10.29,0,0,0,603.34,78h1.72q2.29-.1,2.29-1.72Zm40.63,26a43.39,43.39,0,0,1-12.77,2.7l-5.81-.73q-2,0-10-3.12l-4.86-1.56L611.29,99l1.24-1.25s0-.73-.67-.73h-1.31a6.45,6.45,0,0,0,0-2.45q0-.73-2-.73a2.82,2.82,0,0,0,1.27-1.73c-1.09,0-1.64-.73-1.64-2.09h-1.55l1.45-.73a1,1,0,0,0,.91-.73,4.64,4.64,0,0,0,0-1.09V84.74a5.61,5.61,0,0,0-2.38,1.45,3.39,3.39,0,0,0-1.33,2.29l.67,2.39a19.23,19.23,0,0,0,.76,2.18,3.29,3.29,0,0,0,1.81-.83,1.58,1.58,0,0,0,0,.62,1.52,1.52,0,0,0-2,.31,7.93,7.93,0,0,0,3.14,6.86,24.34,24.34,0,0,0,6.38,3.53l4.19,1.45h1.81q0,1.35,4,2a43.79,43.79,0,0,0,6.67.62,56.65,56.65,0,0,0,8.67-.73,16.27,16.27,0,0,0,6.29-2ZM607.06,60.59a2.11,2.11,0,0,0-1.24,1.72h0l1.24-.57,1.62-1a1.52,1.52,0,0,0,.67-1.14A4.38,4.38,0,0,0,607.06,60.59Zm2.1,3.34a2.29,2.29,0,0,0,.67-1.72h0a3.72,3.72,0,0,0-1.72,1L606.3,64.3h0A2.29,2.29,0,0,0,609.16,63.92Zm-1.33-4.38a13.43,13.43,0,0,1,3.43-1.62l1.81-1a2.57,2.57,0,0,0,.76-1.52,17.82,17.82,0,0,0,0-3.53l-6.29,6.19ZM616.59,50a2.86,2.86,0,0,0-.76,2.1,2.67,2.67,0,0,0,1.91-1,2.86,2.86,0,0,0,1-2A2.76,2.76,0,0,0,616.59,50Zm3.62-.57L618.49,52a7.78,7.78,0,0,0,1.81-2.19ZM624,46q-1.81,1-1.81,1.33l.57,1.33a46.6,46.6,0,0,0,5-3.72h-1.14A6.38,6.38,0,0,0,624,46Zm4.19,1q-1.43,0-4.1,3.14A6.1,6.1,0,0,0,628.5,47Zm.76-2c0,.57,0,1.14,1.43,1.91L632.22,45Zm3.84,1a1.3,1.3,0,0,0-1.1.5l-.9,1.5h.7q1.2,0,2-2Zm1.88-.33a1.33,1.33,0,0,0,1.24-.67h-1Zm2.31.76a3.14,3.14,0,0,0,.48-1.72L634.62,47h.57A1.52,1.52,0,0,0,637,46Zm3.32-1.37L639,46.39a3.34,3.34,0,0,0,1.62,0,1.24,1.24,0,0,0,.76-1.14Zm2.19.57a2.1,2.1,0,0,0-1.72,1.14,3.81,3.81,0,0,0-.76,2,2.19,2.19,0,0,0,1.81-1,4.76,4.76,0,0,0,1-2.1Zm1.14.13a3.14,3.14,0,0,0,0,1.24h.76a4,4,0,0,0-.57,2.1,3,3,0,0,0,1.81-.57,1.91,1.91,0,0,0,0-3,2.38,2.38,0,0,0-1.24-.57A2.5,2.5,0,0,0,643.65,45.76Zm4,2.63a2.38,2.38,0,0,0,0,1.24c0,.67,0,1,1.33,1V47.44a3,3,0,0,0-1.24,1Z"/><path d="M697.74,101.32h0a22.67,22.67,0,0,0,.58,2.66,15.18,15.18,0,0,1,.58,3.6c0,.76-.58,1.23-1.84,1.42a28.43,28.43,0,0,1-4,0h-2.66l-.86-.48s-.57-.48-.57-.67V80.13a19,19,0,0,0-1.53-6.48h0a13,13,0,0,1-3.34-1.72,12.89,12.89,0,0,1-3-2.1l-3.34.67a22.94,22.94,0,0,0-6.3,2A5.82,5.82,0,0,0,668,76.7v2.95s0,1.91,0,2.86v3.81c-.34,5.4-.53,9.5-1,12.29v3.72l-.1.57,1,1.52a4.29,4.29,0,0,1,.86,2.38,2.76,2.76,0,0,1,0,1.24,4.16,4.16,0,0,1-1,1h-7.43s-.54-1-1-1.05a3.61,3.61,0,0,1-1.37-.57V99.08c.51-4.51.86-11.31,1.56-20.39l.44-8.1s0-8.2,0-11.86q0-2.18,0-5.22T660,49q0-6.64,0-10h7.65l1.35.57v5.22a89,89,0,0,0,.58,17.07l.58,1.33A71.76,71.76,0,0,1,678,61.1a34.07,34.07,0,0,1,4.84-1,13.82,13.82,0,0,1,8.52,2.85,20.29,20.29,0,0,1,6.1,7.3,19.51,19.51,0,0,1,2.23,8.73,43.6,43.6,0,0,1,0,5.6l-.48,4.08a71.36,71.36,0,0,0-1.06,10.05,20.26,20.26,0,0,0,0,2.37Zm-33.64,3.2a3.39,3.39,0,0,0,.51-1.95,9.34,9.34,0,0,0,0-1.33,2.26,2.26,0,0,0-.51-1.23h-2.32l2-1.78c0-1.31-.56-2-1-2h0l1-1.22A4.13,4.13,0,0,0,660,97h1.22L660,98.78l.56.56a.94.94,0,0,0-.56,0,2.06,2.06,0,0,0,0,.75v1.34a4.72,4.72,0,0,1,0,1.33h0a.82.82,0,0,0,0,.72l.72.51h1.33A1.85,1.85,0,0,0,664.1,104.51Zm-.47-23a35.16,35.16,0,0,1,.78-8.47h-1.17A7.11,7.11,0,0,0,661,74.36a3.51,3.51,0,0,0,0,2.14h0l1.27.68L661,78.36v8.28l1.27.68a2.92,2.92,0,0,0-1.46.88,2.14,2.14,0,0,0-.58,1.46,5.55,5.55,0,0,1,1.95,0,3,3,0,0,1,1.46,1,4.38,4.38,0,0,0,.68-2.63h-1.46a4.29,4.29,0,0,1,1.36-1.95C663.63,85.56,663.63,83.52,663.63,81.47ZM662.23,94h-1l.57-1.21a3,3,0,0,0-1.33,0,.59.59,0,0,0-.57.67c-.16.23-.16.53,0,1.54h2.38a2.06,2.06,0,0,1,1.14-1h-1.24Zm-.13-52.16a1,1,0,0,0-1,.67,21.75,21.75,0,0,0,1.1,5.15,22.63,22.63,0,0,1,.8,4.19,1.55,1.55,0,0,1,0,.67V63.28l.6.57s-.5,0-.7,1a8.35,8.35,0,0,0,0,2.1h.57s-1.52,1.21-1.52,1.78a4.57,4.57,0,0,0,1.52-.57l1.52-.86a8.77,8.77,0,0,0,0-2.19,1.45,1.45,0,0,0-1-1.52v-.76a1.7,1.7,0,0,0,.23-1.14,24.58,24.58,0,0,0,0-3.72,19.06,19.06,0,0,1-.76-4.29h0a4.86,4.86,0,0,0,0-1.72c0-.73-1.47-2.19-1.47-2.19A16.82,16.82,0,0,0,664,48h0a4.45,4.45,0,0,1,0-1.43,6.27,6.27,0,0,0,0-2.29,7.44,7.44,0,0,0,0-1.91s0-.48-.6-.48A4.51,4.51,0,0,0,662.1,41.84Zm9.09,27.4q8.48-3,9.53-4.57l-.57-.57L672.71,66h-1.33a7.43,7.43,0,0,0-1.52,1.52,8.38,8.38,0,0,1-1.24,1.33,1.91,1.91,0,0,1-1.24,0,.76.76,0,0,1-.67,0h0a13.53,13.53,0,0,0-3.24,1.43,2.57,2.57,0,0,0-1.14,2.29,1,1,0,0,0,1.24,1.24,16,16,0,0,0,3.53-1,2.67,2.67,0,0,0,1.24-1.14,1.72,1.72,0,0,1,.86-1ZM678,67v-.79l-2.43.79h1c.45.62.92.55,1.33,0Zm9.67-2.43A4.67,4.67,0,0,0,685.1,64h-2.57l-3.14,3.81.57.48a30.78,30.78,0,0,0,7.15-3.81ZM685.29,68,687,66.21l-1.43.48c-1,.32-2,.77-2.86.31h1.33c0,1,0,1.5.67,1Zm2.38.88a5.05,5.05,0,0,0,3.62-2l-1.91-1.43-3,3.24ZM691.58,74h1l-1.33,1,1.43.48-1.43,1.33a7,7,0,0,0,2.76-.86,2.57,2.57,0,0,0,1.81-2.29A1.8,1.8,0,0,0,694.34,72h-.48l.57-.93a3.33,3.33,0,0,0-.48-1.81,1.52,1.52,0,0,0-1.33-.76,3.43,3.43,0,0,0-2.1.76,6.58,6.58,0,0,0-1.72,1.81l1.24.48a3.53,3.53,0,0,1-.05,1.14v.76h0Zm4.1,6.12a5,5,0,0,0,1.72-4.1,6.48,6.48,0,0,0-4.29,1.52,4.86,4.86,0,0,0-1.81,3.91A6.67,6.67,0,0,0,695.1,80Zm-1,12.08a6.5,6.5,0,0,1,.9-2.5l.7-1.6a8.4,8.4,0,0,0,.6-3.3,1.8,1.8,0,0,0,0-.7h0l-5.1,2h0c0,.7,0,1.1.7,1.1l-1.4,1.4a2.3,2.3,0,0,0-.6,1.2l1.3-.4h0a1,1,0,0,0,0,.6h.76a1.07,1.07,0,0,0,0,.76h0L692,93.63V107h.75a3.77,3.77,0,0,0,1.69,0,1.25,1.25,0,0,0,.56-1.24V101.5a46.51,46.51,0,0,1,0-5.5h-.5a4.6,4.6,0,0,0,1.6-3.2Zm.12-7.63A5.15,5.15,0,0,0,696.63,81a6,6,0,0,0-2.86,1q-1.72,1-1.72,2h1.43a1.91,1.91,0,0,1-1.43,1l-1,.48a1.14,1.14,0,0,0,0,1A5.05,5.05,0,0,0,694.63,85Z"/><path d="M754.86,81.77q1,19.06,1,25a3.12,3.12,0,0,1-2.44,2.29,20,20,0,0,1-5,.48,4,4,0,0,1-2.82-.67,4,4,0,0,1-.66-2.76v-2.48l-2,2.19a12,12,0,0,1-4.6,3.14,21.6,21.6,0,0,1-8.17,1.24,12.47,12.47,0,0,1-11.08-6.57,31.87,31.87,0,0,1-4.51-15L714,81.1V79.74s1-6.32,1-6.77c.07-1.21,0-3.62,0-3.62v-3.9a9.71,9.71,0,0,1,.58-3.11,2,2,0,0,1,1.94-1.55l6.41.68A3.35,3.35,0,0,1,725,63.61a24.18,24.18,0,0,1,0,4.08v4.43l1,.57V84a41.25,41.25,0,0,0,.75,9.38,8,8,0,0,0,3.19,5,12.94,12.94,0,0,0,7.31,1.69,21.66,21.66,0,0,0,6.09-.66A6.37,6.37,0,0,0,747,96.25V81.46c-.25-4.89-.7-8.58-1-11.05V63.54l.56-.54h6.61A135.26,135.26,0,0,1,754.86,81.77ZM717.47,83c0,2.48,0,3.72.76,3.72l2.76-3V83ZM719,75.74a1.81,1.81,0,0,0-1.24,1.14,7.81,7.81,0,0,0,0,3,30.39,30.39,0,0,0,3-2.38q1.43-1.24,1.43-1.91ZM717.28,90H723v-.67a3.34,3.34,0,0,0,0-1.14A7.62,7.62,0,0,0,723,86V85a6.1,6.1,0,0,1,0-1.24A48.12,48.12,0,0,0,717.28,90Zm.57-16.93c0,.67,0,1,.57,1.14a4.29,4.29,0,0,1,1-1.72l.86-.86a12.48,12.48,0,0,0,1.43-1.72,2.86,2.86,0,0,0,0-1.72c0-1.33,0-2-.48-2.1s-.48,0-.48,0a5.62,5.62,0,0,1,0-1.52q0-1-3.81-1v3.81l.48,2.29a5.15,5.15,0,0,1,0,1.24,6,6,0,0,0,0,1.72Zm4.5,3.93a11,11,0,0,0-3.24,2.07L717,80.41V81l3.93,0H722V77ZM718,95.27c-.31.57.35.76,1.12.76a7.43,7.43,0,0,0,3-.67,2.1,2.1,0,0,0,1.43-2,3.13,3.13,0,0,0,0-1.37h-1c-.49.74-.91,1.16-1.24,1.65A10.87,10.87,0,0,0,720,95.56L718.74,95a9.53,9.53,0,0,0,2.38-4h-1.81a19.81,19.81,0,0,1-2.31.27V92.6c.62.91.58,1.84,1,2.76Zm7,9.78,4-2V102h-1v-1h-6v-1h.57q2.43,0,2.43-1.24a1.59,1.59,0,0,0,0-.67v-.57l-1.85,1.33a4.86,4.86,0,0,1,0-1.52,5.14,5.14,0,0,0,0-1.62l-1.85.57-2.43.76a1.34,1.34,0,0,0-.87,1.24v.64l3.32,4.77A13.18,13.18,0,0,1,725,105.05ZM721.59,74.5a3,3,0,0,0,.67-1.81,6.86,6.86,0,0,0,0-1.62A8.58,8.58,0,0,0,718.74,75,8.1,8.1,0,0,0,721.59,74.5ZM744.46,102h-3a17.2,17.2,0,0,1-1.43,1h-9.7a6.56,6.56,0,0,0-2.15,1l-2.56,1.64a10.26,10.26,0,0,0,6.36,1.33h1.64a3.59,3.59,0,0,0,1.44-1.13V107a18.36,18.36,0,0,0,4.7-.76,6.19,6.19,0,0,0,2.19-2.67l.67.57ZM753,98a7,7,0,0,0,0-1.24v-.67a1.84,1.84,0,0,0-1.39.67l-.78.67a1.67,1.67,0,0,0,0,.76.8.8,0,0,0,.43,0,8.29,8.29,0,0,1-2,2.29,3.64,3.64,0,0,1-1.65,1,1,1,0,0,0,0,.86h0L751,99.76V99h1.22A.92.92,0,0,0,753,98Zm-3.77-20.19s-.67,0-.67.57a2.57,2.57,0,0,0,0,1.14.59.59,0,0,0,.67.57c.67,0,1.62-.76,2.29-2.19a8.58,8.58,0,0,0,1-3.34,1.43,1.43,0,0,0,0-.67h0l-3.24,2.38h0a.76.76,0,0,0,0,.67h1A2.57,2.57,0,0,0,749.23,77.86Zm1.14-7.43s0,.48-.86,1.14a2.67,2.67,0,0,0-.86,1.81,1.52,1.52,0,0,0,0,.57h0a6,6,0,0,0,2.67-2.48,15.06,15.06,0,0,0,0-4.57,4,4,0,0,0,0-1.72,1.33,1.33,0,0,0-1-.19h-1l-.57,4.67c.57.29,1.24.57,1.24.86ZM753,105.94v-.48l-4.29.67,1,1Zm-3.76-21.28a1.14,1.14,0,0,0,1,.67,1.62,1.62,0,0,0-1.72,1.33,15.05,15.05,0,0,0,0,3.34,3.33,3.33,0,0,0,2.57-1.24,4,4,0,0,0,1-2.76H751a2.67,2.67,0,0,0,1-2.1V80.38a2.57,2.57,0,0,0-2.1,1,3.62,3.62,0,0,0-.76,2.29A2.57,2.57,0,0,0,749.24,84.67Zm3.52,18.43a4.57,4.57,0,0,0,0-1.33.67.67,0,0,0-.67,0,3.43,3.43,0,0,0-2.29,1.14,3.62,3.62,0,0,0-1.24,2.1h1.72q2.86-1.24,2.86-2.76ZM749,94v.67c0,.76,0,1.14.67,1.24a12.2,12.2,0,0,0,1.91-2.1l-.67-.67a2.86,2.86,0,0,0-1.24,0A.82.82,0,0,0,749,94Zm3-2.76a7,7,0,0,0,.48-2.38,2.76,2.76,0,0,0-1.91.86,2.67,2.67,0,0,0-1,2,3.91,3.91,0,0,0,2.38-.38Z"/><path d="M790.57,103.46a25.9,25.9,0,0,1-1.52,4.57,9.85,9.85,0,0,0-.89,2.1l-1.16.67V110h-4.26a3.72,3.72,0,0,1-2.23-.57,2.64,2.64,0,0,1-.77-2.29,4.57,4.57,0,0,1-4-1.9A27,27,0,0,1,773,99.43q-.68-9.52-1-19t0-22.48V52a126.17,126.17,0,0,1,.48-15.24,12.57,12.57,0,0,1,4.84-.76h2.45a7.44,7.44,0,0,0,2.41-.86h0c.54,0,.89,0,.89,1.14q0,8.1-.54,24.49,0,8-.54,16.29V88.41a29.53,29.53,0,0,0,1.52,10.48,5.86,5.86,0,0,0,6.07,3.91C789.95,102.8,790.57,103.46,790.57,103.46ZM777.86,71a2.4,2.4,0,0,1-.8.7l-.9.6a1.3,1.3,0,0,0,0,1,3.8,3.8,0,0,0,0,1.7,4.5,4.5,0,0,1,0,2H778V74h-.19a10.35,10.35,0,0,0,1.24-5.12,6.1,6.1,0,0,0,0-1.62,5.91,5.91,0,0,1-1.24-1.81l.57-2.57a27.82,27.82,0,0,0,.62-4.67V57c.05,1,.05,1.43-1.19,1h-.67c.45.24.8-.11,1-.56a4,4,0,0,0-.29-1.44H780V52l-1.52,1.71a4.26,4.26,0,0,1-1.23.95h0A12.51,12.51,0,0,0,779.81,51h-2.46A1.21,1.21,0,0,0,776,52.14a6.16,6.16,0,0,0,.57,3.22l.57,1a8.34,8.34,0,0,1-.57,1.52A5.68,5.68,0,0,0,776,60h.56l-.68,1.06a4.94,4.94,0,0,0-.48,1.16A.68.68,0,0,0,776,63h.75a2.08,2.08,0,0,0-1.46,1.77,17.3,17.3,0,0,0,0,3.23,2.08,2.08,0,0,0,1.46,0h.53a8.83,8.83,0,0,1-.88,1.68L775.5,71Zm-1.95-30.42a16.42,16.42,0,0,0-.76,4.42H776v3.72L777.24,47a5.14,5.14,0,0,1,.76-.38v1A21,21,0,0,0,776.86,50h1A10.72,10.72,0,0,0,780,48.87V39.34A4.48,4.48,0,0,0,775.91,40.58ZM779,100.13a6.44,6.44,0,0,0,.91-3,2.29,2.29,0,0,0,0-1.33c-.33-.14.09,0,.09,0V85.46l-2.19-1q.76,0,.76-3.91a2.57,2.57,0,0,0-1.91,1,3.33,3.33,0,0,0-1,2.19h0l-.72.57v4.38a1.56,1.56,0,0,1,.81,1.33,13,13,0,0,1,0,2.19,5.91,5.91,0,0,0,0,2.19,3,3,0,0,0,1,2.1,2.76,2.76,0,0,1,1,1.72,2.38,2.38,0,0,1-.57,1,8.6,8.6,0,0,0-.76,1.63h1.24c0-.39,1,.66,1.19-.77ZM776.67,78.6a4.1,4.1,0,0,0-.57,2.48l1-.67a3.24,3.24,0,0,0,1.24-1.14,2.76,2.76,0,0,0,0-1.43A2.38,2.38,0,0,0,776.67,78.6ZM786.2,107h0a1,1,0,0,0,0-.67s-.57,0-1.62-1L783,104h-1a3.33,3.33,0,0,1-1.52,0h.86l.57-.57a3.14,3.14,0,0,0,0-1.43,2.19,2.19,0,0,0-1-1s-.57,0-1,1.14a11.05,11.05,0,0,0-.86,1.81,3.72,3.72,0,0,0,2.57,3.34,10.86,10.86,0,0,0,4.67,1.24,1.17,1.17,0,0,0,1-.76Z"/><path d="M835.65,100l2.1.67a12.2,12.2,0,0,1,3.14,1.24,2.19,2.19,0,0,1,1,2,6,6,0,0,1-2.57,5.81L835,108.52a15,15,0,0,1-4.57-2.67l-1.91-1.24a4.57,4.57,0,0,0-2.29,1,5.34,5.34,0,0,1-1.91,1,38.11,38.11,0,0,1-4.38,1.72,13.34,13.34,0,0,1-4,.57,21.44,21.44,0,0,1-8-1.62,16.77,16.77,0,0,1-6.77-5A12.29,12.29,0,0,1,798.49,94a19.06,19.06,0,0,1,.76-4.19,28,28,0,0,1,1.33-4.19,11.24,11.24,0,0,1,5.81-3.81,57.17,57.17,0,0,1,9.53-2.29,46.5,46.5,0,0,0,6.67-1.72q2-.76,2-2.29a7.15,7.15,0,0,0-2-5.15,7.24,7.24,0,0,0-5.53-2.1,9.53,9.53,0,0,0-2.76,0l-3.43,1.33a12.29,12.29,0,0,1-4.48,1.43q-2.67,0-2.67-5.34a4.67,4.67,0,0,1,3-4.76,17.7,17.7,0,0,1,7.62-1h4.57a12.09,12.09,0,0,1,4.48,1h2.1c1.72-.7,2.57-.06,2.57,1.21a3.72,3.72,0,0,1,1.81,0,1.52,1.52,0,0,1,.57,1.43q2.86,0,4.1,4.67A34.68,34.68,0,0,1,835.75,77a53.17,53.17,0,0,1-.76,7.81,52.31,52.31,0,0,0-.86,7.53,11.33,11.33,0,0,0,0,1.81,5,5,0,0,1-.13,1.81v1l.7,1.14a1.11,1.11,0,0,0,1,2Zm-34.41-5.61a.5.5,0,0,0-.48.57h.76a.47.47,0,0,0,.48-.48v-.1A1.43,1.43,0,0,0,801.24,94.43ZM804,98.89a5.24,5.24,0,0,0,.48-1.81,5.05,5.05,0,0,0-2,0,2.1,2.1,0,0,0-1.24,1.24,1.71,1.71,0,0,0,.67.86l.86.57s1,.38,1.24-.48Zm-2-9.18A5.52,5.52,0,0,0,802,91a2.86,2.86,0,0,0,1.43,0l1.24-1h-1.91s-.57-.48-.76.1ZM805.92,91h-2.57a5.41,5.41,0,0,1-1.43,1h3.72a.6.6,0,0,0,.76-.25ZM802,96.32c1.43,0,2.1-.48,2.1-1.52a2.38,2.38,0,0,0-2.1,1.81ZM807,89a2.29,2.29,0,0,0,.57-1h-2.76a3.53,3.53,0,0,1,1.52-.86l2.48-1L812.43,85a4.86,4.86,0,0,0,1.91-1.62h0a13.82,13.82,0,0,0-3.14,0,1.62,1.62,0,0,0-1.33,1.52l-2.19.76a7.72,7.72,0,0,0-2.19,1.14,3.81,3.81,0,0,0-1.24,1.81,3.62,3.62,0,0,0,1.24.76l1.33.48s-.48,0,.19-.48Zm-.6,10.42a1.43,1.43,0,0,0-1.52,1.33s0,.07,0,.1Q806.4,100.7,806.4,99.46Zm12.58-34a8.1,8.1,0,0,0,3,.48A3.33,3.33,0,0,0,820.79,63h-4.86a21.73,21.73,0,0,1-5.15.64,28.59,28.59,0,0,0-4.86,1.24,4.57,4.57,0,0,0,0,1.24,3,3,0,0,0,0,1,14.29,14.29,0,0,0,3.62-.76,6.1,6.1,0,0,0,3.14-1.81l1,.41h.57a2.49,2.49,0,0,0,1,.35A9.53,9.53,0,0,1,819,65.45Zm-.57,35.66a19.91,19.91,0,0,0,5.15-2.19,3.81,3.81,0,0,0,1.91-3.53h0a22,22,0,0,0-1-7.34,4.29,4.29,0,0,0-4.38-3,4.19,4.19,0,0,0-1.52,0h-1.43a5.62,5.62,0,0,0-2.86,1.24l-2.38,1.62a3.43,3.43,0,0,0-1,1.24L810,90.81A11.34,11.34,0,0,1,808.88,93a1.72,1.72,0,0,1-1.52,1.52,7.24,7.24,0,0,0,1.62,5,6,6,0,0,0,4.76,1.81,18.29,18.29,0,0,0,4.57-.57Zm-8.77,4.17a4,4,0,0,0,1.62.57,2.29,2.29,0,0,0-.76-1.33c-.57-1-1-1-1.24-1a1.24,1.24,0,0,0-1.14.76Zm5.81,1a3.52,3.52,0,0,0,0-1.24H815a2.19,2.19,0,0,0-1.91,1.24l1.52.76a11.3,11.3,0,0,0,.76-1.14Zm3.14-24.59-2.86,1.43,3.72-.48Zm3.4,21.92V102a6.38,6.38,0,0,0-3.33,1,3.14,3.14,0,0,0-1.72,2.67l4.38-1.14S821.81,104.42,822,103.56Zm0-22.3a3.75,3.75,0,0,0-.64.73h5l-1.43-1h-1.33a3.12,3.12,0,0,1-1.55.36Zm4-14.65c1,0,1.52-.67,1.52-1.14s-1-1-2.76-1a2.19,2.19,0,0,0-1.62.76,2.48,2.48,0,0,0-.67,1.81h1a9.53,9.53,0,0,0,2.48-.29ZM824.79,104l.76-1.39a4,4,0,0,0,.45-2.1v-1l-1,.76V101c.42.16.46,1,.46,1H824v2Zm4.48-26.17-2.67-.57-1,1.14Zm-3-7.91a1,1,0,0,0,0,.67,1.24,1.24,0,0,0,1,0,3.53,3.53,0,0,0,2,0,1.62,1.62,0,0,0,.57-1.43,3.24,3.24,0,0,0-.57-1.62,1.52,1.52,0,0,0-1.24-1ZM827.08,81h1.81l1.72.57A3.43,3.43,0,0,1,829.08,83a2.19,2.19,0,0,0-.76,1.33,3.43,3.43,0,0,0,0,1.62,9.53,9.53,0,0,0,.48,3,14.2,14.2,0,0,1,0,3,11.72,11.72,0,0,1,0,2.38q2.19-.48,3.24-4.48a33.73,33.73,0,0,0,1-8.39,14.58,14.58,0,0,0,0-3.62,8.1,8.1,0,0,0-3,1l-3.33,1.72A1.24,1.24,0,0,0,827.08,81Zm2.76-9.36a3.91,3.91,0,0,0-1.81,1,2.1,2.1,0,0,0-.67,1.52q1.91,0,3.81-3ZM832,73.93a.5.5,0,0,0-.57-.48,3.81,3.81,0,0,0-1.81.76,6.29,6.29,0,0,0-1.72,1.43l3.72.57a1.72,1.72,0,0,1,0-.67,1.81,1.81,0,0,0,0-.67,1.62,1.62,0,0,0,.38-.57ZM828,99h1.17l1.24-1.06c.51-.44.76-.76.59-1h0a2.49,2.49,0,0,0-1.26,0c-.46.21-.85.54-1.74,1Zm2-4.49a2.19,2.19,0,0,0-.76,1.62,1.91,1.91,0,0,0,2.29-2.1,2.19,2.19,0,0,0-1.52.57Zm.6,7h0c1.14,0,1.72-.86,1.72-2.67a3.34,3.34,0,0,0-1.52.48,1.43,1.43,0,0,0-1,1.24A1,1,0,0,0,830.6,101.47ZM833,103h-1.52a1.43,1.43,0,0,0,.67,1.33A1.52,1.52,0,0,0,833,103Zm3,.85c0-.57-.67-.76-1-.76a1,1,0,0,0-.76.48,2,2,0,0,0,0,1c.76-.1,1.52-.29,1.72-1Zm2.89,3a6.38,6.38,0,0,0,0-1.52.76.76,0,0,0-.86-.57,5,5,0,0,0-1.72,0,2.1,2.1,0,0,0-1.14.76Q835,106.9,838.89,106.9Z"/><path d="M61.83,60h-3c-.91,0-1-.91,0-1.45l5.36-4.45A7.36,7.36,0,0,0,65.09,53a5.73,5.73,0,0,0-1.73-1H61a1.64,1.64,0,0,1-1-.73v.06L69.38,43H66a1.15,1.15,0,0,1-.83-.52,1,1,0,0,1,0-.94l3.54-1.67,3.54-1.25A1.35,1.35,0,0,0,73,38H68.8a1.45,1.45,0,0,1-.48-1.35,1.06,1.06,0,0,1,0-.87c2.41-2,4.82-4.05,7.33-6a9.65,9.65,0,0,1,6-2.8h5.66l11.78,1.05,9.58.67c4.12,0,8.24.77,12.45.86s5.94,0,8.91,0a29.69,29.69,0,0,1,11.88,1.53,67.9,67.9,0,0,1,6.32,3.26l2.3,1.34a4.88,4.88,0,0,1,.86,1c-.57,0-1.34.67-1.53,0a2.87,2.87,0,0,0-2.49,0l-3.35.57c1.34.77,2.49,1.25,3.54,1.92l4.79,3.35a1.25,1.25,0,0,1,0,1.05,3.81,3.81,0,0,1-.86.67l-3.54,1.92,1,.86,4.6,3.35a14.08,14.08,0,0,1,1.34.86,4.5,4.5,0,0,1,.67,1.05,4.31,4.31,0,0,1-1.15.67l-3.83.67h0l1.34,1.15,4.88,4.31a6.13,6.13,0,0,1,1.05.86,1.44,1.44,0,0,1,0,1.05h-1a11.71,11.71,0,0,0-5.37,1l2.54,3.32,2.73,3.61c.78,1,1.46,2,2.15,2.93a1.66,1.66,0,0,1,0,1.17H158l-4.44-.95-3.21-.47c-.76,0-1.23,0-1.32,1.13a26.94,26.94,0,0,0,0,6V109.4a6.71,6.71,0,0,1-2.46,5.67,9.93,9.93,0,0,1-3.4,1.7c-2.55.57-5.2.85-7.85,1.23H135l-16.5,1.62a46.6,46.6,0,0,0-7.2,1l-7.2,1.33a23.81,23.81,0,0,1-7.1,0l-4.5-.19L87.7,121c-1.3,0-1.7-.86-1.7-2.19V89.7a18.16,18.16,0,0,0,0-3.43,2.32,2.32,0,0,0-1.2-3.14,2.54,2.54,0,0,0-3.3,1.14h0a17.67,17.67,0,0,0-3.7,1A2.85,2.85,0,0,0,76,88.08v26.35a22.72,22.72,0,0,0,0,2.36c0,.59,0,.89-.79,1a15.25,15.25,0,0,1-4.92,0,10.72,10.72,0,0,1-4.72-1.38h0A16.13,16.13,0,0,1,64,112.57a47.61,47.61,0,0,1,0-10.43V86.22a67.36,67.36,0,0,0,1-10.1V71.55c.17-1.52.17-.86-.69-.76l-3.14.86a16.39,16.39,0,0,0-2.48.48,17,17,0,0,0-3,1.62c-.57,0-1,.57-1.52,0s0-.86,0-1.33c1.14-1.91,2.19-3.81,3.43-5.62s2.38-3.43,3.62-5.15Zm9.53,8c.76.31,1.24,1.64,2.64.31V69h1V67.45h0a3,3,0,0,1-1.25-.76,9.44,9.44,0,0,1,1.72,0A4.38,4.38,0,0,0,71,68.12c-1.24,0-2.86,2.57-1.91,4l1.14-2.86a6.57,6.57,0,0,0,1-1.26ZM72,117h1.62c.57-.48.86-.48.35-1.24v-3.53c.35-.44.12-.86-.16-1.24l-1.14,2.1,1,1h0s-1,.57-1,1a1.24,1.24,0,0,1-1,1.33,4,4,0,0,0,0-.86s-.76-.67-.86-1A3.77,3.77,0,0,0,68,113.09V116h1.65Zm59.74-42.81a19.06,19.06,0,0,1-1-2.1c0-1.24,0-1.24-1.72-1.14s-1.72,0-1.62-1.62,0,0,0-.76l-2.38,2h0a5.81,5.81,0,0,1,4.76,2.29A8.29,8.29,0,0,0,131.3,74h.76c0,.67,0,0,.67,0L137,70.47c0-1,0-1,1.24-1.43s1,0,1.24.86a8.77,8.77,0,0,0,.76,1.24A11.72,11.72,0,0,0,141.49,73,10.67,10.67,0,0,0,143,74.1c1,.76,1,.76,2.38,0-.67-.48-1.62-1-1.33-1.91l-1-.67c-.86-.86-1.72-1.81-2.57-2.57a3.14,3.14,0,0,0-5,0L133.78,71c0,.57-1,.67-1.43,0h0l.86,2C132.63,73.9,132.63,74.29,131.77,74.19ZM68.63,68.28,72,66.33a3.89,3.89,0,0,1,5.41,1l0,.06.87,1.36c0,.58.78.78,1.46,0a34.9,34.9,0,0,1,3.69-2,6.81,6.81,0,0,1,4.38,0,3.6,3.6,0,0,1,2.63,2.14c.68,1.56,1,1.56,2.43.68l3.5-1.94a4.76,4.76,0,0,1,5.83.88l2.24,2.24a1,1,0,0,0,1.75,0l3.4-3a3,3,0,0,1,3.79-.68l6.13,3.21c.49,0,1,.58,1.56,0l4.08-2.92,1.65-.88a1.94,1.94,0,0,1,2.24,0L133,69.74a.68.68,0,0,0,1,.11l.11-.11a16.8,16.8,0,0,1,2.24-2.33c.87-.68,1.56-1.56,2.53-1.07a47.54,47.54,0,0,1,4.47,2.92l.88.68.78-3.11c.49-2.14.68-2.24,2.82-2.33h0l-3.31-3.79a1.56,1.56,0,0,1,0-1l.78-.58,3.11-1.26-.58-.78-1.94-1.17-3.89-4.38s-.49-.78,0-1a1.75,1.75,0,0,1,1-.58H144l-.76-.86-4-4a1.62,1.62,0,0,1,0-1.14H141l3.47-.69-.89-.79L138,38.84c-1.69-1.49-1.69-2.38-.5-2.38l1.29-1.19h0l-3.47-1.49a13.49,13.49,0,0,0-5-.79,69.42,69.42,0,0,1-7.74,0c-6.74,0-13.49-.6-19.83-1a14.48,14.48,0,0,1-3.37,0,27.37,27.37,0,0,0-5.16,0H89.17a59.28,59.28,0,0,0-7-.29,5.7,5.7,0,0,0-3.38,1.74l1.64,1.74,2.61,2.41a1,1,0,0,1,0,.87,1.74,1.74,0,0,1-.87.58h0A14.39,14.39,0,0,0,75,40.79a34.7,34.7,0,0,0,3.09,3.38c1.06,1.06,0,.77,0,.87a2.41,2.41,0,0,1-1,1h-.62a16.7,16.7,0,0,0-7.2,3.5h0l3.4,3.3a1.9,1.9,0,0,1,0,1.2H72l-5.32,2.42-1,.58h0l3.79,1.94a.88.88,0,0,1,0,.78,1.07,1.07,0,0,1-.78.58,8.36,8.36,0,0,0-4.86,2.14c-.49,0-.78,1.07-1.17,1.56h0l3.69-1.07c.88,0,1.36,0,1.36.87S68.63,67.21,68.63,68.28ZM143,81.2V77.73a2.65,2.65,0,0,0-.57-1.7,34.68,34.68,0,0,1-3.31-2.94,2.08,2.08,0,0,0-3.22,0,35.32,35.32,0,0,0-2.84,2.84c-.57.66-.95.85-1.61,0s-2.46-2.08-3.6-3.31a3.41,3.41,0,0,0-4.17,0L120.18,75a1.89,1.89,0,0,1-2.68.07l-.07-.07-4.17-3a4,4,0,0,0-3.6,0l-2.37,1.8c-.66.57-1.14,1.23-1.8,1.8a1.42,1.42,0,0,1-1.14,0A8,8,0,0,1,102,75l-2.46-2.46a1.7,1.7,0,0,0-2.18,0l-3,1.8a9.47,9.47,0,0,0-1.51.66.95.95,0,0,1-1.51,0,18.94,18.94,0,0,0-4.36-4A2.46,2.46,0,0,0,84,71a16.19,16.19,0,0,0-4.92,3.79c-.57.76-1.14.66-1.61,0l-2.27-2.94c-1-1.14-1.14-1.23-2.37,0A4.64,4.64,0,0,0,70,75v4l-1,8.29s0,11.49,0,17.42a20.4,20.4,0,0,0,.58,5.9c.58,1.94.68,1,1.45.87s1.06,0,1-1.16a21.66,21.66,0,0,1,0-2.52V83.44a2.75,2.75,0,0,1,2.13-2.68A13.55,13.55,0,0,1,78.66,80h6.2A3.7,3.7,0,0,1,88,84.12q0,.14,0,.28v18.27a72.88,72.88,0,0,0,.65,11.57,1.14,1.14,0,0,0,.65.77h17.43c3.45,0,6.18-.7,9.09-1h5.73c3.18,0,6.36-1,9.09-1.3a51.16,51.16,0,0,0,9.09-1.6,2.26,2.26,0,0,0,1.86-2.53,2.4,2.4,0,0,0-.59-1.37V92.9A36.25,36.25,0,0,0,143,81.2ZM125.39,118h0s0-.86-.67-1a1.2,1.2,0,0,0-1,0H123v-.19c-.37-.1.58-.76,1.06-.76s1.62,0,1.81,1.14,0,.76,0,1.33,1,0,1.24-.67a28.59,28.59,0,0,0,1.72-3.14c0-.76,0-.86,1,0L128.15,118H132v-1.29l-1.08.67a.67.67,0,0,1-.57,0,.57.57,0,0,1,0-.57l1.33-1.43a5.4,5.4,0,0,1,1.32,0V116a1.87,1.87,0,0,0-.56,1h1.72l3.34-3.91a94.43,94.43,0,0,0-15.72,1.81l.48,1.14h0l-2.25-1v3.34Zm-20.19-2H92v3.24h0l.43-.86a5.59,5.59,0,0,1,.7-1.14,1,1,0,0,1,.87,0v1s-.05,1.91,1.18,2.38,1,0,1.43,0l.39-.86V121h3.78c1.38,0,2.76,0,3.22-1.86v-.69ZM147,81.35V74a7.09,7.09,0,0,1,2-4.29v-.48a12.89,12.89,0,0,0-2.36,0c-.67,0-1.24.86-2.38,0a12.86,12.86,0,0,1,1.62-1l1.81-.57c0-.76,0-1,.76-1.33a20,20,0,0,0,3-.86l-2.4-1V65h-1.6c-1,.45-1.91.45-2.19,1.11a16.24,16.24,0,0,0-.67,4.89h1.62a2.18,2.18,0,0,1,.86.74L146.54,73h-.89c1.08,1.44,1.08,1.44,0,2.6l1.26.45c.72,0,.81,1,0,1.44a15,15,0,0,0-1.79,1.35,1.79,1.79,0,0,0,0,1.17h.63ZM63.17,57.86l2.29-1,6.67-3.53a21.34,21.34,0,0,0-3-2.48c-1-.57-1.33-1-.48-2l-1.24-1.72A4.76,4.76,0,0,0,66.12,51h1c.76,0,.76,1,0,1.52l-4,3.53C62.31,56.62,62,57,63.17,57.86Zm79.47,58.19a1,1,0,0,1-.14-1.48l.14-.14,2.57-3.43H146c.29,0,0,.76,0,1a4.57,4.57,0,0,1-.67.76l-2.48,3.14a4.76,4.76,0,0,0,3-1.81,10.1,10.1,0,0,0,1.24-2.76,1.24,1.24,0,0,0,0-1.14,21.63,21.63,0,0,0-2.08-1.4l-.26.24a1.62,1.62,0,0,1-1.23,2.11h0l-4.1,1.14-.76,4.48ZM147.57,41h-.74a8.87,8.87,0,0,0-1.28,2.46c0,.89-.59,1.28-1.48,1a5.72,5.72,0,0,0-4.14,0c1.68,1.77,2.76,3.94,5.52,3.55a7.3,7.3,0,0,1,2,0H149a5.2,5.2,0,0,0-2.9-1.6,1.3,1.3,0,0,1-.9-.1s0-.9.7-1.1a6.9,6.9,0,0,0,1.5-.9c-1-.7,0-1.5,0-2.3h-.66ZM144,102.1v4.09c0,1.27,0,0,.55.55s.82,0,.91,1.09.73,1.18,1.55,1.55,0-1.36,0-1.91v-6.64s-1.27,0-1.36.73S145,102.64,144,102.1ZM66.41,67.26h0a2.29,2.29,0,0,1,0,.48,7.83,7.83,0,0,0-.41,3V77h2.41l-.57-1h-.48l-.67-1h0L68,74H66v-.74h0c1.43-.41,1.69-1.34,1.28-2.08v0c-.06-.35-.27-1-.27-1V68s.84-2.57-.88-2.57-1.81,1-1.24,2.57ZM144.83,48.2h0s.86.67.48,1.14a5.7,5.7,0,0,1-1.24.66h-1.47l2.62,3H147v1h1.5c.6,0,1,0,.9.8l-.3,1h0l1-1.4-1-.4a.91.91,0,0,1-.9-.8,4.52,4.52,0,0,1,0-1.2h-1.35a7.31,7.31,0,0,1,.56-1.12L149,49h-3.22ZM148,95.84V87.27c-1.08,0-1.65,0-1.46,1s0,.76,0,1l-1.54-1v3.24l1-.48V90h1.21a6.6,6.6,0,0,1,.48,1.08l-.57-.08h-.76c.76,1.7.67,2-.48,2.46s-.76,0-.86.57a7,7,0,0,0,0,1.43,1.19,1.19,0,0,0,1.62.76ZM74.79,104a1,1,0,0,1,.21-.67V95.18c-.21-1.14-.21-2.48-1-3.43s0,0,0-.48V90.6a1.61,1.61,0,0,0,0,.57V100c0,1.24,0,1.33,1,1.43s.57.57.86.86l-2.19,1.24ZM99.57,67H97.66a19.06,19.06,0,0,0-5.34,3,.57.57,0,0,0-.57.67,15.34,15.34,0,0,0,.67,1.62s0,.67,1,0l3-1.91,1.91-1.24Zm52.29-2.62h0L149.38,62h-1c-.19,0,0-.76,0-1.24h0l1.14-3.14h0a7.05,7.05,0,0,0-.67,1.43c0,.57,0,.67-1,.86L145,61v.57a4,4,0,0,0,2.67,2.67A39.92,39.92,0,0,1,151.86,64.38ZM88,108.32V98.8l-2,1.43v7.9ZM116.12,71h1.52a1.39,1.39,0,0,1,.7.43,5.22,5.22,0,0,1,.52,1.13.52.52,0,0,1,0,.43h-.57l-.58-.48c-.77-1.06-.77-1.06-2.13-.58l1.06,1a2.9,2.9,0,0,0,3.48,0l2.13-1.74c.48,0,1.16-.58,1.55-1l2.52-2.32,1.06-.87h-1.32l-1.23.82-4.1,3.28c-.62.51-1,.51-1.54,0a8.62,8.62,0,0,0-1.44-1.33c-.92-.21-1.23,0-1.54,1.33Zm-45-30.33h0a2.38,2.38,0,0,0,0,.86c0,1.14,0,1.24-.67,1.72A27.92,27.92,0,0,0,67.74,45l.38,1.43a10.39,10.39,0,0,1,.48-1.81,1.24,1.24,0,0,1,.86-.67s.57,0,.76.76a6.57,6.57,0,0,1,0,1.24h0a7.43,7.43,0,0,1,.67-1,14.2,14.2,0,0,1,1.62-1.72c.34-.12.71-.12.49,0v.48l-.21.67-.86.67h0L74,44.1v-.67l.32-.86a1.83,1.83,0,0,0-1.81-.76c-.86.19-.57,0-.76,0A4.67,4.67,0,0,1,71.08,40.67ZM67,94.89V83.84c-.78.48-1.07,1-.88,1.72s0,.76,0,.76-.76,0-.86,1a12.56,12.56,0,0,0,0,1.91h0L66,88h0v1.24c.6.76.6.86-.16,1.72a3.34,3.34,0,0,0-1.14,3.53ZM80.61,28.52h0l1.62,2a1.14,1.14,0,0,0,0,.48h3.14c.67,0,1,0,1-1a1.52,1.52,0,0,1,0-.57c0-.48,0-.76-.48-.76Zm61.75,4.72h0l-1.81.86s-.67.67-.67,1a3.93,3.93,0,0,1-1,1.72l-1.52,1,3.14,2.1L142,39h-1V35h-.17l.67-1.19ZM75.19,82c-1.62,0-2.1.76-2.19,2.38a20.3,20.3,0,0,0,0,2.67v1c0,.1.86,0,1-.67A11.24,11.24,0,0,1,75.29,85a.86.86,0,0,0,0-1,15.82,15.82,0,0,1-.19-2Zm.46-43a19,19,0,0,0,1.14-2c0-.67.76-.48,1.24,0h.57l.76-.76-1.71-.57c-.48,0-.86,0-1-.86A5.62,5.62,0,0,0,76,33.57c-.48.67-.48.67-.57,2.57s0,1.43-1.14,1.33h0l-1.62.86-1.43.57,1.43,1.9C73.75,38.14,74,38,75.46,39ZM107,118.9h0l.48-.86.67-.86c.86-1,1.62-1,2.29,0l.76,1.24a8.58,8.58,0,0,0,1.72-3.53l-5.91,1Zm-4-49.36h0v3.14L104.62,74a.86.86,0,0,0,1.21.13L106,74l2.1-2.48a2.48,2.48,0,0,0,0-.67h0l-1.14,1.24a1,1,0,0,1-1.62,0A17.08,17.08,0,0,1,103,69.54Zm-44.5,0a2.48,2.48,0,0,1,2.76-.29l1-1.62h0l-2.48,1.24h0l1-1L59,66.59,55.83,72h0l3.72-1.52ZM111.05,30h-6.57a2.13,2.13,0,0,0-.48,1v1c1.72,0,3.53.76,5.15,0Zm9.29,85H115a4.67,4.67,0,0,0,3.91,3ZM65.07,58.87l-.76,1L63.65,59A.86.86,0,0,0,63,59a3,3,0,0,0-.76,0,1.85,1.85,0,0,1,1.33.86c.19.38,0,1-.67,1.33l-1.62,2c1,0,1.72-1.24,2.48-.48l5-2.76c-1-1-1.72-1-2.57,0l-.57.86s-.57.86-1,0,0-.76,0-1.14a10.58,10.58,0,0,1,1-1.52ZM87.18,84.5a1.81,1.81,0,0,0-1.33-1.81A11.57,11.57,0,0,1,81.18,82c0,.86,0,1.24.86,1.43a5.24,5.24,0,0,1,3.24,1.72Zm47.64-53.36h0c0,.67,0,1.52.76,1.91a4.38,4.38,0,0,0,4.67-1ZM110.81,70l3.81,1.43c0-.57.76-1.24,1-1.81a.78.78,0,0,0,0-.86l-1.72-1h0c.57.67-.76,1.52.48,2.19h-1.24a8.77,8.77,0,0,1-.76-1.81ZM96.1,29.57,92,29.09h0V31h2.48A1.81,1.81,0,0,0,96.1,29.57Zm48,57.95,2.9-1.94a.68.68,0,0,0,0-.48V82h-.87c.87,1.06.87,1.35,0,2l-1.84,1h1.16C144.68,86.35,143.52,86.26,144.1,87.52Zm-30,29a4.57,4.57,0,0,0-1.62,2.86l4.19-.57ZM138.64,114h0l-2.48,3a.67.67,0,0,1-1.14,0h3ZM82.23,68.69a13.05,13.05,0,0,1-1.81,1.52,15.34,15.34,0,0,1-2.38,1l1.33,1.91c0-1.52,1.24-2.19,2.1-1.52l.76-.48A3,3,0,0,1,82.23,68.69ZM64.9,98.38l.67-1.91c-.76,0-1,2.48-.57,3.53h2V96.09C66.24,96.86,66.33,98.19,64.9,98.38ZM76,31.53A9.53,9.53,0,0,0,77,33a1.43,1.43,0,0,0,.86,0,12.2,12.2,0,0,1,.86-3h0ZM88.51,67.73h0a5.34,5.34,0,0,0-3.43,0c-.86,0-1,.67-.57,1.33s1-1.14,1.91-1.14l-1.33,1.33c.76,0,1.33,0,1.43-.76s0-1,1-.57S88,67.83,88.51,67.73Zm57.87,31.63-2.38-2v3.81ZM67,106.52V105H65v1.8Zm53.34-74c0-1.43,0-1.43-1-1.52h-1.24c-.67,0-.67.48-.67.86s0,.76.67.76Zm-12.86,39.4c2.38-1,2.86-1.81,2.1-3.34C108.24,69.16,108,70.59,107.48,71.93Zm42.88-13.05.86-.67s1-.76,1.24-.57a5.49,5.49,0,0,1,.76,1.33h0l.76-1-2.57-2.1Zm0,11.43h0l4.19-3.24-1.33-1.62c0,1.24,0,1.14-.76,1.81a28.59,28.59,0,0,0-2.38,3.14Zm4.29-.76c.57.48,1.14.76,1.33,1.24s.48,1,1.62.76l-2.1-3.24ZM65,107.66v2l3-.76V108H67c-.57-1.1-1.43-.15-2.1-.44Zm26,10.77-.57.57h-1a4.48,4.48,0,0,1,0-1,7.05,7.05,0,0,1,0-1,4.1,4.1,0,0,0,0-.76h0a15.88,15.88,0,0,1-.76,2.86h2.48Zm-5-20c1.56,0,2.32-.76,2-1.42H87V96H86Zm23.76,19.3L108.43,120h3.14ZM59.55,66H62s.38-.48.57-.48h0l-1.72-1.24Zm68.83-33.62c0-.57,0-1.14-.76-1.24a2.86,2.86,0,0,0-1.62,0v.67c0,.67,0,.57.48.67ZM110.81,69.16,113,67.83a1.91,1.91,0,0,0-2.69-.07l-.07.07ZM65.67,113.09,67,115a5.24,5.24,0,0,0,0-1.62v-1.72ZM61.93,70.21c1.52,0,2.29-1.62,1.52-3.24Zm1.24-21.34h0l-1.24,1.72,2,.48h0Zm9.53,59.08c1.14,0,1.81,0,1.52-1.43s-.67,0-1-.57,0,0-.48,0A15.73,15.73,0,0,0,72.7,107.95Zm79.56-56.31h0l-1.91-2.19-.76,1c1.14,0,1,.86.57,1.72ZM73.55,36.86l-.86-2.57-1.91,1.62ZM64,48.68l1,1.62.86-3.91h0ZM149.57,61H151V59h0ZM146,34.38V36h2.1ZM86,87.94v1.91h0l1-2.19h0ZM76.6,72l.76-2.67C75.84,70.21,75.65,70.88,76.6,72ZM90.52,29h-.67l-1,1.62C89.85,31.1,89.94,30.81,90.52,29ZM87.66,88.71h0l-1,2.29h1.52ZM145,36.29V34.77l-2.29,2.1h0ZM101,72.12v-2l-1.52.67Zm4.76,45.79-.86,2.1h1.72ZM66,102.8c1.24,0,1.52-1,.86-1.81C65.74,102,65.74,102,66,102.8Zm8-67.27h0V32.76l-1,1Zm13.28,79.56c1,0,1.14,0,1-.76a7,7,0,0,1,0-1.43h0ZM94,120.33v-1.72h0l-.86,1.52ZM102.43,30h0s-1.14-.19-1.14,0a11.05,11.05,0,0,0,0,1.72h0ZM81.18,38h0s-.67-1.14-.86-1.14a4.48,4.48,0,0,0-1.14,1h0ZM59.45,59h2l-.76-1.24Zm88.23-15.28h0l1.52-1.24c-.48-.67-.67-.76-1,0Q147.94,43.09,147.69,43.72ZM129.87,69.86h0l-1-.86h-.57c-.1,0,0,.67,0,.67Zm15.25-28.8h0L143.4,42.2l1,.67ZM101,68.69l-1-.76v1.43h0ZM70.12,71.26h0l1.33-1.14-1-.67ZM144.45,83l1.43-1h-1.14ZM69,46.39V48.3C70.14,47.53,70.14,47.34,69,46.39ZM86.8,94c1.14,0,1.33,0,.86-1.91ZM68.71,40.14,67.57,41H69v-.76ZM87,116c-.86,0-.86,0,0,2Zm-16-3,.86,1.24L72.7,113ZM88,70.88V69.16h0l-.67,1ZM65.74,111.76h0l1.81-1.43h0ZM79.46,32,81,31.24l-.76-.76ZM147,98.7h0V97.46l-1,.76ZM74.22,105l-1.52-1.43c0,1.33.76,1.33,1.62,1.33ZM99,31.24l1-1.24C99,29.91,98.9,30,99,31.24ZM65,110.42v1.24h0l.57-1ZM77.37,84.5,78.51,84l-1-.86Z"/><path d="M97,86V84.71a2.85,2.85,0,0,0,0-.86c0-1.62.67-2,2.58-2.19l7.93-.67h28.76a5.08,5.08,0,0,1,2.58,0A3,3,0,0,1,140,82.9a32.75,32.75,0,0,1,0,4.57V99.1a7.21,7.21,0,0,1-.1,3.81,5.45,5.45,0,0,1-4.2,2.48l-8.6.86-9.56.76H98.9a2.23,2.23,0,0,1-2.57-2.2H96V88C96.33,87.36,97,86,97,86Zm29.87,14.57h0l7.57-1.12c1.4,0,1.87-.84,1.77-2.05a22.42,22.42,0,0,0,0-2.71,16.35,16.35,0,0,1,0-6,9.31,9.31,0,0,1,.47-3.55c.47-1.21,0-.93-.93-.84L132.1,85H110l-7.94.65a1.12,1.12,0,0,0-.52,1.5l0,.09a7.1,7.1,0,0,0-.56,2.34v12c0,.93,0,1,.93.93l7.94-.56h6.45Zm4.08,4.3a4.45,4.45,0,0,1,0-1,4.34,4.34,0,0,1,0-1l.52.72s.93,1.14,1.55,1.14a8.48,8.48,0,0,0,2.17,0,5.69,5.69,0,0,0,4-6.62c-.72,0-.93,0-.83.83a1.55,1.55,0,0,1-1.34,2.07l-3.31.62c-.52,0-.83,0-.83.83s0,.62-.83.72-.52-.72-.72-1.14h-1.49s-.67.13,0,.8q0,.38,0,.76h0l-1.81-1a12.2,12.2,0,0,1-.86,1.33,2.76,2.76,0,0,1-.76.48,3,3,0,0,1,0-.86l1.43-2.56H125.3a1.19,1.19,0,0,0-.86,1.23,19.53,19.53,0,0,0,.67,2.77ZM99,89V85.84c.09-1,.09-1,1.52-.86A14.59,14.59,0,0,0,103,85V82.5a33.66,33.66,0,0,0-3.91,0,5.17,5.17,0,0,0-1,1.24A2.76,2.76,0,0,0,98,85C98.33,86.6,97.76,87.84,99,89Zm17.81-7h-7.53c0,1.65,0,1.74,1.71,1.55V84h1.05a2.43,2.43,0,0,0,3.14-.54h0Zm3.91.22c0,.67,1.62.57.76,1.72a25.16,25.16,0,0,1,4.29,0,2.49,2.49,0,0,0,2.38-1.43ZM113.1,106l2.1-3H110c-1,0-1.33,0-1,1.52h0l.76-1a1,1,0,0,1,1.52,0Zm-7.91,0h1.14l1-2.72-5.05.29c-1,0-1,.67-1,1.81a9.53,9.53,0,0,1,1.14-1.81,1.43,1.43,0,0,1,1,0l.57.67a4.79,4.79,0,0,1,0,.77h1Zm15.15-3h-3.85l1.24,3h.9a5.25,5.25,0,0,0-.86-1.1,5.21,5.21,0,0,1,0-.9h1.14s0-.15.76.61ZM106.52,85c-.48-2.19-.67-2.48-1.72-2.19s-.57,1.24-.67,2.19ZM137,92.89v3.34c.49,1,1,0,1,.67h0v-.57a1.23,1.23,0,0,1,.14-.94l.11-.11C139.4,94,139.4,93.46,137,93Zm-13.32,11.44c-1.52.86-2.38.67-3.34-1L119,105h5.05Zm-1.44-.77h0A14,14,0,0,0,123,102v-.67c0-.67-1,0-1.14,0A5.24,5.24,0,0,0,122.24,103.56ZM114.43,105h2.1l-1.33-1.81ZM100,101.75h0l-1.14,1.33,1.14.48h0Zm9.1,4.25h2.38c-.67-1.24-1.33-1.24-2.19-.1Zm19.06-22.92c1.72,0,3,0,3.24-.48s-1.52.57-2.19,0Zm8.67-.08h1.72s0-1-.48-1ZM97.95,97.28a6.48,6.48,0,0,0,0,1,1.24,1.24,0,0,0,0,.67h.48a1,1,0,0,0,0-.76A1.66,1.66,0,0,0,97.95,97.28Zm.05,8.47c.67-1.14.67-1.33,0-1.52Z"/><path d="M97.57,68.86,94.8,72H94a2.29,2.29,0,0,1,0-.76l2.48-1.91,1-.67Z"/></svg>